# Blender 4.5.3 LTS
# www.blender.org
mtllib Letrero.mtl
g Frente_Malla
v 0.053052 0.035075 1.089472
v 2.001846 0.035075 1.089472
v 1.977374 0.035075 1.089472
v 0.077524 0.035075 1.089472
v 0.053052 0.965898 1.089472
v 0.077524 0.965898 1.089472
v 2.001846 0.965898 1.089472
v 1.977374 0.965898 1.089472
v 2.001846 0.123503 1.089472
v 2.001846 0.877470 1.089472
v 2.001846 0.232829 1.089472
v 2.001846 0.768145 1.089472
v 0.053052 0.123503 1.089472
v 0.053052 0.877470 1.089472
v 0.053052 0.232829 1.089472
v 0.053052 0.768145 1.089472
v 0.077524 0.123503 1.089472
v 1.977374 0.123503 1.089443
v 0.077524 0.123503 1.089443
v 0.077524 0.035075 1.089443
v 1.977374 0.035075 1.089443
v 0.077524 0.877470 1.089472
v 1.977374 0.965898 1.089443
v 0.077524 0.965898 1.089443
v 0.077524 0.877470 1.089443
v 1.977374 0.877470 1.089443
v 0.077524 0.232829 1.089472
v 1.977374 0.232829 1.089443
v 0.077524 0.232829 1.089443
v 0.077524 0.768145 1.089472
v 0.077524 0.768145 1.089443
v 1.977374 0.768145 1.089443
v 1.977374 0.123503 1.089472
v 1.977374 0.877470 1.089472
v 1.977374 0.232829 1.089472
v 1.977374 0.768145 1.089472
vn -0.0000 -0.0000 1.0000
vn -0.0000 1.0000 -0.0000
vn -1.0000 -0.0000 -0.0000
vn -0.0000 -1.0000 -0.0000
vn 1.0000 -0.0000 -0.0000
vt 0.024975 0.135854
vt 0.012737 0.135854
vt 0.012737 0.051460
vt 0.024975 0.051460
vt 0.975025 0.135853
vt 0.024975 0.135854
vt 0.975025 0.051460
vt 0.024975 0.979094
vt 0.012737 0.979094
vt 0.012737 0.855419
vt 0.024975 0.855419
vt 0.975025 0.979094
vt 0.975025 0.855418
vt 0.024975 0.240191
vt 0.012737 0.240191
vt 0.975025 0.240190
vt 0.012737 0.751082
vt 0.024975 0.751082
vt 0.975025 0.751081
vt 0.987263 0.051460
vt 0.987263 0.135853
vt 0.987263 0.855418
vt 0.987263 0.979094
vt 0.987263 0.240190
vt 0.987263 0.751081
s 1
g off
g Frente_Frente
usemtl Frente
f 17/1/1 13/2/1 1/3/1
f 1/3/1 4/4/1 17/1/1
s 2
f 18/5/1 19/6/1 20/4/1
f 20/4/1 21/7/1 18/5/1
s 1
f 6/8/1 5/9/1 14/10/1
f 14/10/1 22/11/1 6/8/1
s 2
f 23/12/1 24/8/1 25/11/1
f 25/11/1 26/13/1 23/12/1
s 1
f 27/14/1 15/15/1 13/2/1
f 13/2/1 17/1/1 27/14/1
s 2
f 28/16/1 29/14/1 19/6/1
f 19/6/1 18/5/1 28/16/1
s 1
f 22/11/1 14/10/1 16/17/1
f 16/17/1 30/18/1 22/11/1
s 2
f 26/13/1 25/11/1 31/18/1
f 31/18/1 32/19/1 26/13/1
s 1
f 30/18/1 16/17/1 15/15/1
f 15/15/1 27/14/1 30/18/1
s 2
f 28/16/1 32/19/1 31/18/1
f 31/18/1 29/14/1 28/16/1
s 3
f 33/5/1 3/7/1 2/20/1
f 2/20/1 9/21/1 33/5/1
f 8/12/1 34/13/1 10/22/1
s 4
f 10/22/1 7/23/1 8/12/1
s 3
f 35/16/1 33/5/1 9/21/1
f 9/21/1 11/24/1 35/16/1
f 34/13/1 36/19/1 12/25/1
f 12/25/1 10/22/1 34/13/1
f 36/19/1 35/16/1 11/24/1
f 11/24/1 12/25/1 36/19/1
s 5
f 4/4/2 3/7/2 21/7/2
f 21/7/2 20/4/2 4/4/2
s 6
f 3/7/3 33/5/3 18/5/3
f 18/5/3 21/7/3 3/7/3
f 33/5/3 35/16/3 28/16/3
f 28/16/3 18/5/3 33/5/3
f 35/16/3 36/19/3 32/19/3
f 32/19/3 28/16/3 35/16/3
f 36/19/3 34/13/3 26/13/3
f 26/13/3 32/19/3 36/19/3
f 34/13/3 8/12/3 23/12/3
f 23/12/3 26/13/3 34/13/3
s 7
f 8/12/4 6/8/4 24/8/4
f 24/8/4 23/12/4 8/12/4
s 8
f 6/8/5 22/11/5 25/11/5
f 25/11/5 24/8/5 6/8/5
f 22/11/5 30/18/5 31/18/5
f 31/18/5 25/11/5 22/11/5
f 30/18/5 27/14/5 29/14/5
f 29/14/5 31/18/5 30/18/5
f 27/14/5 17/1/5 19/6/5
f 19/6/5 29/14/5 27/14/5
f 17/1/5 4/4/5 20/4/5
f 20/4/5 19/6/5 17/1/5
g Fundo.002_Malla
v 2.001846 0.997735 1.085419
v 2.001846 0.997735 1.104472
v 2.026318 0.997735 1.104472
v 2.026318 0.997735 1.085419
v 0.028580 0.965898 1.085419
v 0.028580 0.965898 1.104472
v 0.028580 0.997735 1.104472
v 0.028580 0.997735 1.085419
v 0.053052 0.003239 1.085419
v 0.053052 0.003239 1.104472
v 0.028580 0.003239 1.104472
v 0.028580 0.003239 1.085419
v 2.026318 0.035075 1.085419
v 2.026318 0.035075 1.104472
v 2.026318 0.003239 1.104472
v 2.026318 0.003239 1.085419
v 0.028580 0.035075 1.085419
v 0.053052 0.035075 1.085419
v 0.053052 0.035075 1.104472
v 0.028580 0.035075 1.104472
v 0.053052 0.997735 1.085419
v 0.053052 0.997735 1.104472
v 0.077524 0.997735 1.104472
v 0.077524 0.997735 1.085419
v 2.001846 0.003239 1.085419
v 2.001846 0.003239 1.104472
v 1.977374 0.003239 1.104472
v 1.977374 0.003239 1.085419
v 2.001846 0.965898 1.085419
v 1.977374 0.965898 1.085419
v 1.977374 0.997735 1.085419
v 2.001846 0.035075 1.104472
v 1.977374 0.035075 1.104472
v 1.977374 0.997735 1.104472
v 0.077524 0.003239 1.085419
v 0.077524 0.003239 1.104472
v 0.077524 0.965898 1.085419
v 0.077524 0.035075 1.104472
v 2.026318 0.965898 1.104472
v 2.026318 0.965898 1.085419
v 0.053052 0.965898 1.085419
v 0.053052 0.965898 1.104472
v 0.077524 0.965898 1.104472
v 2.001846 0.035075 1.085419
v 2.001846 0.965898 1.104472
v 0.077524 0.035075 1.085419
v 1.977374 0.035075 1.085419
v 1.977374 0.965898 1.104472
v 0.028580 0.877470 1.085419
v 0.028580 0.877470 1.104472
v 2.026318 0.123503 1.085419
v 2.026318 0.123503 1.104472
v 0.028580 0.123503 1.085419
v 0.053052 0.123503 1.085419
v 2.026318 0.877470 1.085419
v 2.001846 0.877470 1.085419
v 2.001846 0.123503 1.104472
v 1.977374 0.877470 1.085419
v 0.077524 0.877470 1.085419
v 0.028580 0.123503 1.104472
v 2.026318 0.877470 1.104472
v 0.053052 0.877470 1.085419
v 2.001846 0.123503 1.085419
v 2.001846 0.877470 1.104472
v 0.077524 0.123503 1.085419
v 1.977374 0.123503 1.085419
v 0.028580 0.768145 1.085419
v 0.028580 0.768145 1.104472
v 2.026318 0.232829 1.085419
v 2.026318 0.232829 1.104472
v 0.028580 0.232829 1.085419
v 0.053052 0.232829 1.085419
v 2.026318 0.768145 1.085419
v 2.001846 0.768145 1.085419
v 2.001846 0.232829 1.104472
v 1.977374 0.768145 1.085419
v 0.077524 0.768145 1.085419
v 0.028580 0.232829 1.104472
v 2.026318 0.768145 1.104472
v 0.053052 0.768145 1.085419
v 2.001846 0.232829 1.085419
v 2.001846 0.768145 1.104472
v 0.077524 0.232829 1.085419
v 1.977374 0.232829 1.085419
v 0.053052 0.123503 1.104472
v 0.053052 0.877470 1.104472
v 0.053052 0.232829 1.104472
v 0.053052 0.768145 1.104472
vn -0.0000 1.0000 -0.0000
vn -1.0000 -0.0000 -0.0000
vn -0.0000 -1.0000 -0.0000
vn 1.0000 -0.0000 -0.0000
vn -0.0000 -0.0000 -1.0000
vn -0.0000 -0.0000 1.0000
vt 0.987263 1.009478
vt 0.999501 1.009478
vt 0.000500 0.979094
vt 0.000500 1.009478
vt 0.012737 0.021076
vt 0.000500 0.021076
vt 0.999500 0.051460
vt 0.999500 0.021076
vt 0.000500 0.051460
vt 0.012737 0.051460
vt 0.012737 1.009478
vt 0.024975 1.009478
vt 0.987263 0.021076
vt 0.975025 0.021076
vt 0.987263 0.979094
vt 0.975025 0.979094
vt 0.975025 1.009478
vt 0.987263 0.051460
vt 0.975025 0.051460
vt 0.024975 0.021076
vt 0.024975 0.979094
vt 0.024975 0.051460
vt 0.999501 0.979094
vt 0.012737 0.979094
vt 0.000500 0.855419
vt 0.999500 0.135853
vt 0.000500 0.135854
vt 0.012737 0.135854
vt 0.999501 0.855418
vt 0.987263 0.855418
vt 0.987263 0.135853
vt 0.975025 0.855418
vt 0.024975 0.855419
vt 0.012737 0.855419
vt 0.024975 0.135854
vt 0.975025 0.135853
vt 0.000500 0.751082
vt 0.999500 0.240190
vt 0.000500 0.240191
vt 0.012737 0.240191
vt 0.999501 0.751081
vt 0.987263 0.751081
vt 0.987263 0.240190
vt 0.975025 0.751081
vt 0.024975 0.751082
vt 0.012737 0.751082
vt 0.024975 0.240191
vt 0.975025 0.240190
s 1
g off
g Fundo.002_Fundo
usemtl Fundo
f 37/26/6 38/26/6 39/27/6
f 39/27/6 40/27/6 37/26/6
s 2
f 41/28/7 42/28/7 43/29/7
f 43/29/7 44/29/7 41/28/7
s 3
f 45/30/8 46/30/8 47/31/8
f 47/31/8 48/31/8 45/30/8
s 4
f 49/32/9 50/32/9 51/33/9
f 51/33/9 52/33/9 49/32/9
s 5
f 53/34/10 54/35/10 45/30/10
f 45/30/10 48/31/10 53/34/10
s 6
f 46/30/11 55/35/11 56/34/11
f 56/34/11 47/31/11 46/30/11
s 1
f 57/36/6 58/36/6 59/37/6
f 59/37/6 60/37/6 57/36/6
s 3
f 61/38/8 62/38/8 63/39/8
f 63/39/8 64/39/8 61/38/8
s 5
f 37/26/10 65/40/10 66/41/10
f 66/41/10 67/42/10 37/26/10
s 6
f 62/38/11 68/43/11 69/44/11
f 69/44/11 63/39/11 62/38/11
s 1
f 67/42/6 60/37/6 59/37/6
f 59/37/6 70/42/6 67/42/6
s 3
f 71/45/8 64/39/8 63/39/8
f 63/39/8 72/45/8 71/45/8
s 5
f 67/42/10 66/41/10 73/46/10
f 73/46/10 60/37/10 67/42/10
s 6
f 63/39/11 69/44/11 74/47/11
f 74/47/11 72/45/11 63/39/11
s 2
f 48/31/7 47/31/7 56/34/7
f 56/34/7 53/34/7 48/31/7
s 4
f 40/27/9 39/27/9 75/48/9
f 75/48/9 76/48/9 40/27/9
s 5
f 44/29/10 57/36/10 77/49/10
f 77/49/10 41/28/10 44/29/10
s 6
f 59/37/11 58/36/11 78/49/11
f 78/49/11 79/46/11 59/37/11
s 5
f 52/33/10 61/38/10 80/43/10
f 80/43/10 49/32/10 52/33/10
s 6
f 39/27/11 38/26/11 81/40/11
f 81/40/11 75/48/11 39/27/11
s 5
f 64/39/10 71/45/10 82/47/10
f 82/47/10 83/44/10 64/39/10
s 6
f 70/42/11 59/37/11 79/46/11
f 79/46/11 84/41/11 70/42/11
s 2
f 85/50/7 86/50/7 42/28/7
f 42/28/7 41/28/7 85/50/7
s 4
f 87/51/9 88/51/9 50/32/9
f 50/32/9 49/32/9 87/51/9
s 5
f 89/52/10 90/53/10 54/35/10
f 54/35/10 53/34/10 89/52/10
f 91/54/10 92/55/10 65/40/10
f 65/40/10 76/48/10 91/54/10
s 6
f 88/51/11 93/56/11 68/43/11
f 68/43/11 50/32/11 88/51/11
s 5
f 94/57/10 95/58/10 73/46/10
f 73/46/10 66/41/10 94/57/10
s 2
f 53/34/7 56/34/7 96/52/7
f 96/52/7 89/52/7 53/34/7
s 4
f 76/48/9 75/48/9 97/54/9
f 97/54/9 91/54/9 76/48/9
s 5
f 41/28/10 77/49/10 98/59/10
f 98/59/10 85/50/10 41/28/10
f 49/32/10 80/43/10 99/56/10
f 99/56/10 87/51/10 49/32/10
s 6
f 75/48/11 81/40/11 100/55/11
f 100/55/11 97/54/11 75/48/11
s 5
f 83/44/10 82/47/10 101/60/10
f 101/60/10 102/61/10 83/44/10
s 2
f 103/62/7 104/62/7 86/50/7
f 86/50/7 85/50/7 103/62/7
s 4
f 105/63/9 106/63/9 88/51/9
f 88/51/9 87/51/9 105/63/9
s 5
f 107/64/10 108/65/10 90/53/10
f 90/53/10 89/52/10 107/64/10
f 109/66/10 110/67/10 92/55/10
f 92/55/10 91/54/10 109/66/10
s 6
f 106/63/11 111/68/11 93/56/11
f 93/56/11 88/51/11 106/63/11
s 5
f 112/69/10 113/70/10 95/58/10
f 95/58/10 94/57/10 112/69/10
s 2
f 89/52/7 96/52/7 114/64/7
f 114/64/7 107/64/7 89/52/7
s 4
f 91/54/9 97/54/9 115/66/9
f 115/66/9 109/66/9 91/54/9
s 5
f 85/50/10 98/59/10 116/71/10
f 116/71/10 103/62/10 85/50/10
f 87/51/10 99/56/10 117/68/10
f 117/68/10 105/63/10 87/51/10
s 6
f 97/54/11 100/55/11 118/67/11
f 118/67/11 115/66/11 97/54/11
s 5
f 102/61/10 101/60/10 119/72/10
f 119/72/10 120/73/10 102/61/10
s 2
f 103/62/7 107/64/7 114/64/7
f 114/64/7 104/62/7 103/62/7
s 4
f 105/63/9 109/66/9 115/66/9
f 115/66/9 106/63/9 105/63/9
s 5
f 103/62/10 116/71/10 108/65/10
f 108/65/10 107/64/10 103/62/10
f 105/63/10 117/68/10 110/67/10
f 110/67/10 109/66/10 105/63/10
s 6
f 115/66/11 118/67/11 111/68/11
f 111/68/11 106/63/11 115/66/11
s 5
f 112/69/10 120/73/10 119/72/10
f 119/72/10 113/70/10 112/69/10
s 3
f 71/45/8 72/45/8 46/30/8
f 46/30/8 45/30/8 71/45/8
s 5
f 82/47/10 71/45/10 45/30/10
f 45/30/10 54/35/10 82/47/10
s 6
f 72/45/11 74/47/11 55/35/11
f 55/35/11 46/30/11 72/45/11
s 1
f 44/29/6 43/29/6 58/36/6
f 58/36/6 57/36/6 44/29/6
s 5
f 60/37/10 73/46/10 77/49/10
f 77/49/10 57/36/10 60/37/10
s 6
f 43/29/11 42/28/11 78/49/11
f 78/49/11 58/36/11 43/29/11
s 5
f 101/60/10 82/47/10 54/35/10
f 54/35/10 90/53/10 101/60/10
s 6
f 96/52/11 56/34/11 55/35/11
f 55/35/11 121/53/11 96/52/11
s 5
f 73/46/10 95/58/10 98/59/10
f 98/59/10 77/49/10 73/46/10
s 6
f 42/28/11 86/50/11 122/59/11
f 122/59/11 78/49/11 42/28/11
s 5
f 119/72/10 101/60/10 90/53/10
f 90/53/10 108/65/10 119/72/10
s 6
f 114/64/11 96/52/11 121/53/11
f 121/53/11 123/65/11 114/64/11
s 5
f 95/58/10 113/70/10 116/71/10
f 116/71/10 98/59/10 95/58/10
s 6
f 86/50/11 104/62/11 124/71/11
f 124/71/11 122/59/11 86/50/11
s 5
f 113/70/10 119/72/10 108/65/10
f 108/65/10 116/71/10 113/70/10
s 6
f 104/62/11 114/64/11 123/65/11
f 123/65/11 124/71/11 104/62/11
s 1
f 67/42/6 70/42/6 38/26/6
f 38/26/6 37/26/6 67/42/6
s 3
f 52/33/8 51/33/8 62/38/8
f 62/38/8 61/38/8 52/33/8
s 5
f 40/27/10 76/48/10 65/40/10
f 65/40/10 37/26/10 40/27/10
s 6
f 51/33/11 50/32/11 68/43/11
f 68/43/11 62/38/11 51/33/11
s 5
f 64/39/10 83/44/10 80/43/10
f 80/43/10 61/38/10 64/39/10
s 6
f 70/42/11 84/41/11 81/40/11
f 81/40/11 38/26/11 70/42/11
s 5
f 94/57/10 66/41/10 65/40/10
f 65/40/10 92/55/10 94/57/10
f 83/44/10 102/61/10 99/56/10
f 99/56/10 80/43/10 83/44/10
f 112/69/10 94/57/10 92/55/10
f 92/55/10 110/67/10 112/69/10
f 102/61/10 120/73/10 117/68/10
f 117/68/10 99/56/10 102/61/10
f 120/73/10 112/69/10 110/67/10
f 110/67/10 117/68/10 120/73/10
