# Blender 4.5.3 LTS
# www.blender.org
mtllib MarcoPuerta.mtl
g 78886_Malla
v 9.039070 17.077038 -1.131366
v 10.849123 17.477757 -2.693038
v 10.717981 17.857311 -2.482849
v 7.807230 1.348020 -1.234938
v 9.375106 1.348020 -2.814970
v 9.375106 1.348020 -1.234938
v 2.817868 21.268175 1.312948
v 3.567462 22.650265 1.357927
v 4.204252 22.265577 -1.131366
v 3.328211 22.544863 -1.178391
v 2.908768 21.281836 -1.155868
v 7.676069 15.365451 1.468780
v 9.375106 15.289387 1.357927
v 7.862550 15.077674 1.357927
v 9.375106 15.289387 -1.131366
v 7.862550 15.077674 -1.131366
v 7.855478 13.322550 1.481835
v 9.375106 12.701758 1.481835
v 8.045839 13.144783 -1.280699
v 9.375107 12.701758 -1.234609
v 7.855479 13.322550 -1.234609
v 8.564033 15.077674 3.004287
v 16.861254 15.077674 3.099144
v 16.203760 15.501591 2.404722
v 16.203760 15.501591 1.110940
v 17.456453 13.143070 -0.150939
v 16.203760 12.701758 2.814970
v 16.892338 13.322550 3.095371
v 14.360037 1.348020 -2.814970
v 14.299156 1.459195 -4.793777
v 17.350891 1.348020 -4.633625
v 11.218829 12.495605 2.814970
v 12.789433 12.701758 2.814970
v 11.697352 12.131198 2.578958
v 14.341068 12.499843 -2.814970
v 13.850580 12.135435 -2.415533
v 18.118530 1.348020 4.298168
v 16.203760 1.348020 2.814970
v 18.369940 1.348020 2.804073
v 15.420598 19.106377 -1.163319
v 15.880366 18.680767 -1.110940
v 14.895327 18.826412 -0.800364
v 3.809960 29.690550 1.110940
v 3.809960 29.287020 0.944061
v 4.240304 28.414612 0.715364
v 15.698750 19.393066 1.110940
v 14.895327 18.826412 0.715364
v 12.831776 13.322550 3.182064
v 12.431346 13.209416 3.392144
v 16.911299 15.077674 -3.064908
v 16.203760 15.501591 -1.110940
v 16.203760 15.501591 -2.404722
v 9.039194 17.076710 1.357927
v 10.799745 18.088491 2.700047
v 10.888809 17.661612 2.499091
v 8.733146 15.077674 -3.085704
v 12.407687 15.266345 3.392144
v 12.812334 15.501591 2.579671
v 12.829581 15.077674 3.182064
v 9.375106 1.348020 2.814970
v 7.807230 1.348020 1.482164
v 9.375106 1.348020 1.482164
v 7.063930 1.004500 1.759802
v 6.884976 1.348020 1.482164
v 6.358660 28.688824 -1.110940
v 6.800622 28.086597 -1.158885
v 6.477715 27.627478 -0.715364
v 5.043488 24.063599 -2.416982
v 5.381604 23.839031 -2.579671
v 0.311041 30.336834 1.062833
v 3.809960 29.287020 -0.946119
v 0.311041 30.209290 -1.030542
v 3.809960 29.690550 -1.110940
v 4.240304 28.414612 -0.715364
v 10.394095 25.917917 -1.168132
v 10.741645 25.889687 -1.042337
v 9.888068 25.278654 -0.772556
v 6.662603 20.572405 -1.131366
v 7.870865 21.991667 -2.530667
v 5.358492 19.638271 -1.055485
v 5.239336 19.770126 1.399331
v 6.218400 21.048449 1.357927
v 7.720327 9.750097 1.392689
v 9.375106 9.625413 1.481924
v 9.375106 8.424574 1.481959
v 7.719632 9.505411 -1.149045
v 9.375107 8.352032 -1.234735
v 9.375107 9.665002 -1.234697
v 7.687082 12.964289 1.567810
v 7.687066 12.960030 -1.344707
v 7.460681 10.151992 1.547075
v 7.460060 9.899924 -1.318688
v 12.755085 22.589497 0.807211
v 13.634671 23.179260 1.053938
v 13.189816 23.275560 1.189232
v 4.560047 24.458817 2.377800
v 5.048004 24.134651 2.579671
v 6.275082 27.763954 0.800063
v 6.655481 28.657290 1.063498
v 7.879126 19.268463 1.357927
v 9.334277 20.536596 2.489551
v 13.175279 15.266345 3.392144
v 13.183595 13.209415 3.392144
v 11.148846 15.501591 2.579671
v 16.466230 15.501591 0.000000
v 15.204974 15.926773 -0.715364
v 17.286242 14.953137 0.000000
v 17.535336 15.179608 -0.185146
v 16.203760 12.566374 0.000000
v 11.083329 15.501591 -2.579671
v 9.260756 8.635135 -2.879386
v 11.672258 8.406529 -2.415533
v 11.246317 8.441429 -2.850008
v 14.307525 8.536763 -2.861214
v 13.855185 8.441148 -2.415533
v 13.959147 8.829523 2.578958
v 14.360037 8.845429 2.863047
v 11.302251 8.535721 2.886414
v 11.618885 8.374563 2.578958
v 9.269866 8.579199 2.879957
v 16.270069 8.722741 -2.859075
v 16.203760 12.701758 -2.814970
v 9.295737 4.676609 2.884257
v 9.375106 3.539650 1.482100
v 7.675953 3.308507 1.548271
v 7.659394 3.151283 -1.284111
v 9.375106 3.363814 -1.234880
v 9.294606 4.709481 -2.869977
v 11.686057 4.684817 -2.415533
v 11.269087 4.601964 -2.904797
v 13.863662 1.638215 -2.415533
v 11.697352 1.638215 -2.415533
v 11.661144 4.746643 2.578958
v 13.863662 1.638215 2.578958
v 11.697352 1.638215 2.578958
v 11.248401 4.683833 2.851856
v 14.360037 1.348020 2.814970
v 17.350891 1.348020 4.813622
v 13.948710 1.239142 4.928785
v 11.218829 1.348020 2.814970
v 11.236339 1.189549 4.712867
v 9.633439 1.496565 4.974481
v 9.240073 1.044770 4.654774
v 9.268731 0.114412 4.813622
v 18.151958 0.963850 2.566037
v 18.369940 0.114412 2.728883
v 11.218829 1.348020 -2.814970
v 11.486576 1.438908 -4.875083
v 8.039221 1.348020 -4.813622
v 18.125240 1.399036 -2.776260
v 16.203760 1.348020 -2.814970
v 18.118530 1.348020 -4.118172
v 18.381933 1.685672 -2.529736
v -9.039070 17.077038 1.131366
v -10.849123 17.477757 2.693038
v -10.717981 17.857311 2.482849
v -7.807230 1.348020 1.234938
v -9.375106 1.348020 2.814970
v -9.375106 1.348020 1.234938
v -2.817868 21.268175 -1.312948
v -3.567462 22.650265 -1.357927
v -4.204252 22.265577 1.131366
v -3.328211 22.544863 1.178391
v -2.908768 21.281836 1.155868
v -7.676069 15.365451 -1.468780
v -9.375106 15.289387 -1.357927
v -7.862550 15.077674 -1.357927
v -9.375106 15.289387 1.131366
v -7.862550 15.077674 1.131366
v -7.855478 13.322550 -1.481835
v -9.375106 12.701758 -1.481835
v -8.045839 13.144783 1.280699
v -9.375107 12.701758 1.234609
v -7.855479 13.322550 1.234609
v -8.564033 15.077674 -3.004287
v -16.861254 15.077674 -3.099144
v -16.203760 15.501591 -2.404722
v -16.203760 15.501591 -1.110940
v -17.456453 13.143070 0.150939
v -16.203760 12.701758 -2.814970
v -16.892338 13.322550 -3.095371
v -14.360037 1.348020 2.814970
v -14.299156 1.459195 4.793777
v -17.350891 1.348020 4.633625
v -11.218829 12.495605 -2.814970
v -12.789433 12.701758 -2.814970
v -11.697352 12.131198 -2.578958
v -14.341068 12.499843 2.814970
v -13.850580 12.135435 2.415533
v -18.118530 1.348020 -4.298168
v -16.203760 1.348020 -2.814970
v -18.369940 1.348020 -2.804073
v -15.420598 19.106377 1.163319
v -15.880366 18.680767 1.110940
v -14.895327 18.826412 0.800364
v -3.809960 29.690550 -1.110940
v -3.809960 29.287020 -0.944061
v -4.240304 28.414612 -0.715364
v -15.698750 19.393066 -1.110940
v -14.895327 18.826412 -0.715364
v -12.831776 13.322550 -3.182064
v -12.431346 13.209416 -3.392144
v -16.911299 15.077674 3.064908
v -16.203760 15.501591 1.110940
v -16.203760 15.501591 2.404722
v -9.039194 17.076710 -1.357927
v -10.799745 18.088491 -2.700047
v -10.888809 17.661612 -2.499091
v -8.733146 15.077674 3.085704
v -12.407687 15.266345 -3.392144
v -12.812334 15.501591 -2.579671
v -12.829581 15.077674 -3.182064
v -9.375106 1.348020 -2.814970
v -7.807230 1.348020 -1.482164
v -9.375106 1.348020 -1.482164
v -7.063930 1.004500 -1.759802
v -6.884976 1.348020 -1.482164
v -6.358660 28.688824 1.110940
v -6.800622 28.086597 1.158885
v -6.477715 27.627478 0.715364
v -5.043488 24.063599 2.416982
v -5.381604 23.839031 2.579671
v -0.311041 30.336834 -1.062833
v -3.809960 29.287020 0.946119
v -0.311041 30.209290 1.030542
v -3.809960 29.690550 1.110940
v -4.240304 28.414612 0.715364
v -10.394095 25.917917 1.168132
v -10.741645 25.889687 1.042337
v -9.888068 25.278654 0.772556
v -6.662603 20.572405 1.131366
v -7.870865 21.991667 2.530667
v -5.358492 19.638271 1.055485
v -5.239336 19.770126 -1.399331
v -6.218400 21.048449 -1.357927
v -7.720327 9.750097 -1.392689
v -9.375106 9.625413 -1.481924
v -9.375106 8.424574 -1.481959
v -7.719632 9.505411 1.149045
v -9.375107 8.352032 1.234735
v -9.375107 9.665002 1.234697
v -7.687082 12.964289 -1.567810
v -7.687066 12.960030 1.344707
v -7.460681 10.151992 -1.547075
v -7.460060 9.899924 1.318688
v -12.755085 22.589497 -0.807211
v -13.634671 23.179260 -1.053938
v -13.189816 23.275560 -1.189232
v -4.560047 24.458817 -2.377800
v -5.048004 24.134651 -2.579671
v -6.275082 27.763954 -0.800063
v -6.657266 28.657602 -1.063071
v -7.879126 19.268463 -1.357927
v -9.333188 20.537746 -2.488804
v -13.175279 15.266345 -3.392144
v -13.183595 13.209415 -3.392144
v -11.148846 15.501591 -2.579671
v -16.466230 15.501591 0.000000
v -15.204974 15.926773 0.715364
v -17.286242 14.953137 0.000000
v -17.535336 15.179608 0.185146
v -16.203760 12.566374 0.000000
v -11.083329 15.501591 2.579671
v -9.260756 8.635135 2.879386
v -11.672258 8.406529 2.415533
v -11.246317 8.441429 2.850008
v -14.307525 8.536763 2.861214
v -13.855185 8.441148 2.415533
v -13.959147 8.829523 -2.578958
v -14.360037 8.845429 -2.863047
v -11.302251 8.535721 -2.886414
v -11.618885 8.374563 -2.578958
v -9.269866 8.579199 -2.879957
v -16.270069 8.722741 2.859075
v -16.203760 12.701758 2.814970
v -9.295737 4.676609 -2.884257
v -9.375106 3.539650 -1.482100
v -7.675953 3.308507 -1.548271
v -7.659394 3.151283 1.284111
v -9.375106 3.363814 1.234880
v -9.294606 4.709481 2.869977
v -11.686057 4.684817 2.415533
v -11.269087 4.601964 2.904797
v -13.863662 1.638215 2.415533
v -11.697352 1.638215 2.415533
v -11.661144 4.746643 -2.578958
v -13.863662 1.638215 -2.578958
v -11.697352 1.638215 -2.578958
v -11.248401 4.683833 -2.851856
v -14.360037 1.348020 -2.814970
v -17.350891 1.348020 -4.813622
v -13.948710 1.239142 -4.928785
v -11.218829 1.348020 -2.814970
v -11.236339 1.189549 -4.712867
v -9.633439 1.496565 -4.974481
v -9.240073 1.044770 -4.654774
v -9.268731 0.114412 -4.813622
v -18.151958 0.963850 -2.566037
v -18.369940 0.114412 -2.728883
v -11.218829 1.348020 2.814970
v -11.486576 1.438908 4.875083
v -8.039221 1.348020 4.813622
v -18.125240 1.399036 2.776260
v -16.203760 1.348020 2.814970
v -18.118530 1.348020 4.118172
v -18.381933 1.685672 2.529736
v 12.829581 15.077674 -3.382334
v 12.831776 13.322550 -3.382334
v 16.834671 13.322550 -3.134092
v 8.749540 13.322550 -3.103533
v 8.039221 0.114412 4.813622
v 8.039221 1.348020 4.813622
v 17.350891 0.114412 -4.633625
v 14.239923 0.114412 -4.768135
v 15.258475 19.191689 2.636060
v 15.911764 15.501591 2.579671
v 7.879223 19.268576 -1.131366
v 9.414668 20.362061 -2.651817
v 7.413160 22.563410 2.579671
v 10.025177 25.899620 2.440202
v 13.294876 23.052702 2.667814
v 0.309931 30.223215 2.515429
v 6.572216 28.494810 2.555469
v 0.174171 25.517582 2.579671
v 8.567510 13.322550 3.013980
v 7.271584 1.348020 -1.234938
v 7.271584 0.114412 -1.234938
v 7.271584 0.114412 -4.298168
v 7.271584 1.348020 -4.298168
v 18.118530 0.114412 4.298168
v 15.204974 15.926773 0.715364
v 9.691824 25.462725 0.715364
v 12.755085 22.589497 -0.715364
v 6.615609 18.372942 -1.131366
v 6.615609 18.372942 1.357927
v 16.281595 8.950198 2.900318
v 9.375106 12.701758 2.814970
v 15.911764 15.501591 -2.579671
v 9.375107 12.701758 -2.814970
v 11.161309 12.701758 -2.814970
v 14.360037 12.701758 2.814970
v 8.919116 15.077674 3.182064
v 13.863662 12.337352 2.578958
v 7.271584 1.348020 4.298168
v 17.350891 0.114412 4.813622
v 7.271584 0.114412 4.298168
v 18.118530 0.114412 -4.118172
v 8.039221 0.114412 -4.813622
v 15.260529 18.835899 -2.357888
v 15.720592 18.410837 -2.607016
v 13.103129 23.353413 2.404722
v 10.190270 26.110586 2.265252
v 10.189932 26.110882 0.971470
v 10.864584 25.772770 -2.533581
v 13.389299 23.082537 -2.524217
v 13.393978 23.082598 -1.110940
v 6.355834 28.685432 -2.625175
v 6.811537 28.126966 -2.333326
v 7.525064 16.616388 -1.131366
v 7.525064 16.616388 1.357927
v 15.572171 19.429571 2.398454
v 6.355834 28.685432 2.298688
v 6.801953 28.743212 2.404722
v 8.900322 13.322550 3.182064
v 0.311041 30.437975 -2.477118
v 0.306982 30.166191 -2.700476
v 6.249568 28.435732 -2.800123
v 10.458709 25.856493 -2.404722
v 6.710053 27.860594 -2.499683
v 10.512762 25.578159 -2.639313
v 13.176564 22.924175 -2.699165
v 15.098781 19.267797 -2.579671
v 0.173234 25.515373 -2.681329
v 6.974764 0.114412 1.580660
v -0.000000 25.570946 -2.430452
v 0.000000 30.020187 -2.364642
v -0.000000 23.530302 -1.242313
v 0.144750 23.559753 -1.349274
v 0.167649 21.928461 -1.421164
v -0.000000 22.158525 -1.242313
v 0.000000 22.158525 1.242313
v 0.000000 23.530302 1.242313
v 0.000000 25.570946 2.430452
v 0.000000 30.019176 2.364957
v 0.000000 30.081688 -0.024421
v 15.351676 19.330198 -2.404757
v 13.662745 23.119822 2.513669
v 11.657684 12.337352 -2.415533
v 14.124745 0.114412 4.953732
v 11.238030 0.114412 4.700163
v 18.259546 0.114412 -2.694209
v 11.568983 0.114412 -4.912491
v -12.829581 15.077674 3.382334
v -12.831776 13.322550 3.382334
v -16.834671 13.322550 3.134092
v -8.749540 13.322550 3.103533
v -8.039221 0.114412 -4.813622
v -8.039221 1.348020 -4.813622
v -17.350891 0.114412 4.633625
v -14.239923 0.114412 4.768135
v -15.258475 19.191689 -2.636060
v -15.911764 15.501591 -2.579671
v -7.879223 19.268576 1.131366
v -9.414668 20.362061 2.651817
v -7.413160 22.563410 -2.579671
v -10.025177 25.899620 -2.491954
v -13.289856 23.054260 -2.666646
v -0.310163 30.238779 -2.510366
v -6.569934 28.494390 -2.554890
v -0.174171 25.517582 -2.579671
v -8.567510 13.322550 -3.013980
v -7.271584 1.348020 1.234938
v -7.271584 0.114412 1.234938
v -7.271584 0.114412 4.298168
v -7.271584 1.348020 4.298168
v -18.118530 0.114412 -4.298168
v -15.204974 15.926773 -0.715364
v -9.691824 25.462725 -0.715364
v -12.755085 22.589497 0.715364
v -6.615609 18.372942 1.131366
v -6.615609 18.372942 -1.357927
v -16.281595 8.950198 -2.900318
v -9.375106 12.701758 -2.814970
v -15.911764 15.501591 2.579671
v -9.375107 12.701758 2.814970
v -11.161309 12.701758 2.814970
v -14.360037 12.701758 -2.814970
v -8.919116 15.077674 -3.182064
v -13.863662 12.337352 -2.578958
v -7.271584 1.348020 -4.298168
v -17.350891 0.114412 -4.813622
v -7.271584 0.114412 -4.298168
v -18.118530 0.114412 4.118172
v -8.039221 0.114412 4.813622
v -15.260529 18.835899 2.357888
v -15.852368 18.423018 2.518123
v -13.103129 23.353413 -2.404722
v -10.190270 26.110586 -2.317005
v -10.189932 26.110882 -1.023223
v -10.864584 25.772770 2.533581
v -13.389299 23.082537 2.524217
v -13.393978 23.082598 1.110940
v -6.355834 28.685432 2.625175
v -6.811537 28.126966 2.333326
v -7.525064 16.616388 1.131366
v -7.525064 16.616388 -1.357927
v -15.572171 19.429571 -2.398454
v -15.593070 18.399048 2.693038
v -6.355834 28.685432 -2.298688
v -6.801953 28.743212 -2.404722
v -8.900322 13.322550 -3.182064
v -0.311041 30.437975 2.520896
v -0.306982 30.166191 2.700476
v -6.249568 28.435732 2.800123
v -10.458709 25.856493 2.404722
v -6.710053 27.860594 2.499683
v -10.512762 25.578159 2.639313
v -13.176564 22.924175 2.699165
v -15.098781 19.267797 2.579671
v -0.173234 25.515373 2.681329
v -6.974764 0.114412 -1.580660
v -0.144750 23.559753 1.349274
v -0.167649 21.928461 1.421164
v -15.351676 19.330198 2.404757
v -13.662745 23.119822 -2.513669
v -11.657684 12.337352 2.415533
v -14.124745 0.114412 -4.953732
v -11.238030 0.114412 -4.700163
v -18.259546 0.114412 2.694209
v -11.568983 0.114412 4.912491
vn -0.6651 0.1726 -0.7266
vn -0.0000 1.0000 -0.0000
vn 0.0433 -0.0322 -0.9985
vn 0.0466 -0.3327 0.9419
vn 0.1685 0.4126 -0.8952
vn -0.1384 0.9886 0.0590
vn 0.5419 0.8405 -0.0000
vn 0.6272 -0.7640 0.1512
vn 0.0335 0.9979 0.0550
vn 0.0633 -0.4826 0.8736
vn 0.3282 0.4564 0.8270
vn 0.2729 0.3677 -0.8890
vn 0.5108 -0.4631 0.7243
vn 0.5140 0.8578 -0.0000
vn -0.3575 -0.4578 0.8140
vn -0.1384 0.9885 -0.0616
vn 0.5450 0.6930 0.4720
vn -0.0000 0.6286 0.7777
vn 0.5522 0.3448 0.7590
vn -0.5643 -0.2895 -0.7732
vn 0.0830 0.3808 -0.9209
vn 0.0771 0.3770 0.9230
vn 0.2608 0.3650 0.8937
vn -0.2177 0.6324 0.7434
vn -0.0538 -0.0000 0.9985
vn -0.0517 -0.0000 -0.9987
vn 0.0804 0.1967 0.9772
vn 0.0895 0.1664 -0.9820
vn -0.0795 -0.4018 0.9123
vn -0.0089 -0.3999 -0.9165
vn -0.1336 0.5454 -0.8275
vn -0.4892 -0.2090 0.8468
vn -0.6244 0.6303 0.4614
vn -0.5613 -0.3926 0.7286
vn -0.0000 0.0373 0.9993
vn 0.3614 0.9285 -0.0854
vn 0.2741 0.4098 0.8700
vn 0.4221 -0.9055 0.0436
vn 0.9999 0.0167 0.0008
vn -0.9972 -0.0000 -0.0751
vn -0.9976 -0.0000 0.0694
vn -0.0000 -0.0000 -1.0000
vn -0.0000 -0.0000 1.0000
vn -0.0304 0.9985 0.0455
vn -0.7700 0.6362 0.0484
vn -0.6944 0.1003 0.7126
vn -0.0043 0.5284 -0.8490
vn 0.7009 0.0434 -0.7119
vn -0.0256 0.9988 0.0407
vn -0.0258 0.9990 -0.0378
vn -0.0021 0.6531 -0.7572
vn 0.6651 0.1726 0.7266
vn -0.0433 -0.0322 0.9985
vn -0.0466 -0.3327 -0.9419
vn -0.1685 0.4126 0.8952
vn 0.1384 0.9886 -0.0590
vn -0.5419 0.8405 -0.0000
vn -0.6272 -0.7640 -0.1512
vn -0.0335 0.9979 -0.0550
vn -0.0633 -0.4826 -0.8736
vn -0.3282 0.4564 -0.8270
vn -0.2729 0.3677 0.8890
vn -0.5108 -0.4631 -0.7243
vn -0.5140 0.8578 -0.0000
vn 0.3575 -0.4578 -0.8140
vn 0.1384 0.9885 0.0616
vn -0.5450 0.6930 -0.4720
vn -0.0000 0.6286 -0.7777
vn -0.5522 0.3448 -0.7590
vn 0.5643 -0.2895 0.7732
vn -0.0830 0.3808 0.9209
vn -0.0771 0.3770 -0.9230
vn -0.2608 0.3650 -0.8937
vn 0.2177 0.6324 -0.7434
vn 0.0538 -0.0000 -0.9985
vn 0.0517 -0.0000 0.9987
vn -0.0804 0.1967 -0.9772
vn -0.0895 0.1664 0.9820
vn 0.0795 -0.4018 -0.9123
vn 0.0089 -0.3999 0.9165
vn 0.1336 0.5454 0.8275
vn 0.4892 -0.2090 -0.8468
vn 0.6244 0.6303 -0.4614
vn 0.5613 -0.3926 -0.7286
vn -0.0000 0.0373 -0.9993
vn -0.3614 0.9285 0.0854
vn -0.2741 0.4098 -0.8700
vn -0.4221 -0.9055 -0.0436
vn -0.9999 0.0167 -0.0008
vn 0.9972 -0.0000 0.0751
vn 0.9976 -0.0000 -0.0694
vn 0.0304 0.9985 -0.0455
vn 0.7700 0.6362 -0.0484
vn 0.6944 0.1003 -0.7126
vn 0.0043 0.5284 0.8490
vn -0.7009 0.0434 0.7119
vn 0.0256 0.9988 -0.0407
vn 0.0258 0.9990 0.0378
vn 0.0021 0.6531 0.7572
vn 0.0619 0.0001 -0.9981
vn 0.0775 0.0359 -0.9963
vn 0.4645 0.0006 0.8856
vn 0.4476 0.0051 0.8942
vn -0.9021 -0.0040 -0.4315
vn -0.9131 0.0276 -0.4068
vn -0.0000 0.1683 0.9857
vn 0.1311 -0.0000 0.9914
vn 0.0524 -0.0000 -0.9986
vn 0.0432 -0.0209 -0.9988
vn -0.0338 0.0072 0.9994
vn -0.0000 -0.0153 0.9999
vn -0.4614 -0.4306 -0.7757
vn -0.4687 -0.3849 -0.7951
vn 0.0498 0.0028 0.9988
vn -0.0553 0.0163 0.9983
vn -0.0163 -0.0359 0.9992
vn 0.0489 0.0122 0.9987
vn -0.5010 -0.0942 0.8603
vn -0.5638 -0.0371 0.8250
vn -0.9195 0.0314 0.3918
vn -0.9069 0.0005 0.4214
vn -1.0000 -0.0000 -0.0000
vn 0.9874 -0.0096 0.1582
vn 0.9861 -0.0000 0.1659
vn 0.9907 0.0173 0.1352
vn 0.9829 0.0785 0.1665
vn 0.9943 0.1062 -0.0000
vn 0.6841 0.7294 -0.0000
vn 0.3319 0.9433 -0.0000
vn 0.3060 0.9510 -0.0447
vn -0.7093 -0.7049 0.0034
vn -0.7124 -0.7018 -0.0000
vn -0.8392 -0.5438 -0.0000
vn -1.0000 0.0040 -0.0000
vn 0.0191 0.0178 0.9997
vn 0.0124 -0.0174 0.9998
vn -0.0348 -0.0325 -0.9989
vn -0.0249 0.0352 -0.9991
vn 0.9998 0.0207 -0.0028
vn 0.9998 0.0179 -0.0009
vn -0.9997 0.0255 -0.0000
vn -0.6825 -0.7309 -0.0000
vn -0.9977 -0.0084 0.0679
vn -0.9988 -0.0000 0.0492
vn 0.0320 0.9109 -0.4115
vn -0.0000 0.7531 -0.6579
vn -0.0000 -0.4215 -0.9068
vn -0.0000 -0.4116 0.9113
vn -0.1190 0.9640 0.2378
vn -0.1534 0.9868 0.0513
vn -0.7044 -0.7098 -0.0000
vn -0.3721 -0.9109 -0.1780
vn -0.1664 0.9847 -0.0520
vn -0.3782 -0.9257 -0.0000
vn -0.5490 -0.7960 0.2551
vn 0.0146 -0.0023 -0.9999
vn -0.0169 0.0142 -0.9998
vn -0.0000 0.0117 -0.9999
vn -0.0012 0.0111 -0.9999
vn -0.0000 0.0227 0.9997
vn -0.0201 0.0125 0.9997
vn -0.0028 0.0180 0.9998
vn 0.0018 0.0157 0.9999
vn 0.2628 0.9487 0.1757
vn -0.5784 0.0102 0.8157
vn -0.4225 -0.0115 0.9063
vn -0.0000 0.6310 0.7758
vn 0.4578 0.0257 0.8887
vn 0.6928 -0.0145 0.7210
vn 0.7599 0.0138 -0.6499
vn 0.7142 0.0026 -0.6999
vn -0.0000 0.8090 -0.5878
vn -0.6378 0.0144 -0.7701
vn -0.7017 -0.0009 -0.7124
vn 0.5575 -0.0000 0.8302
vn -0.5575 -0.0000 0.8302
vn 0.5575 -0.0000 -0.8302
vn -0.5575 -0.0000 -0.8302
vn 0.6732 0.6967 -0.2479
vn 0.6027 0.7716 -0.2036
vn 0.6874 0.7262 -0.0000
vn 0.6868 0.7268 0.0024
vn 0.7292 0.6843 0.0065
vn 0.7268 0.6868 -0.0024
vn -0.1265 -0.5372 -0.8339
vn 0.0134 0.0221 0.9997
vn -0.0417 -0.0099 0.9991
vn 0.0408 0.0099 0.9991
vn 0.0030 0.0045 1.0000
vn 0.7669 0.6411 0.0292
vn 0.8061 0.5918 -0.0028
vn -0.5216 -0.2760 -0.8073
vn -0.5346 -0.3307 -0.7777
vn -0.8880 -0.4598 -0.0000
vn 0.1129 -0.4038 0.9078
vn 0.8692 0.4944 -0.0000
vn 0.4106 0.0533 -0.9103
vn 0.3829 0.0409 -0.9229
vn 0.3614 0.9285 0.0854
vn 0.3194 0.9476 -0.0000
vn 0.2457 0.1870 -0.9511
vn 0.3119 0.3037 -0.9003
vn 0.3312 0.2910 0.8976
vn 0.1649 0.1964 0.9666
vn 0.1311 0.3336 0.9335
vn 0.1262 0.3589 0.9248
vn 0.1154 0.2354 -0.9650
vn 0.1027 0.3260 -0.9398
vn 0.3960 0.2050 0.8951
vn 0.4686 0.2276 0.8536
vn 0.9873 0.1588 -0.0000
vn 0.9873 0.1281 0.0934
vn 0.0537 -0.4983 -0.8653
vn 0.2132 0.9099 -0.3558
vn 0.2359 0.8648 0.4432
vn 0.2725 0.3023 0.9134
vn 0.3462 0.4234 0.8372
vn 0.5591 0.0864 0.8246
vn 0.5122 0.0837 0.8548
vn 0.2125 0.9105 0.3547
vn -0.4477 0.0048 0.8942
vn -0.4508 0.0040 0.8926
vn 0.1690 0.6243 -0.7627
vn 0.1332 0.5301 -0.8374
vn 0.2568 0.4396 -0.8607
vn 0.3599 0.6412 -0.6778
vn 0.1784 0.2008 -0.9632
vn 0.4047 0.3769 -0.8332
vn 0.3544 0.4168 0.8371
vn 0.5921 0.7104 0.3805
vn 0.0541 -0.4995 -0.8646
vn -0.3397 -0.6575 0.6726
vn -0.0606 -0.5420 0.8382
vn 0.3508 0.9328 0.0829
vn 0.5554 0.8305 0.0428
vn -0.0732 0.4637 -0.8830
vn -0.0715 0.4457 -0.8923
vn 0.0246 -0.0545 -0.9982
vn -0.0099 -0.0379 -0.9992
vn -0.0304 -0.0079 -0.9995
vn -0.0384 0.0379 -0.9985
vn -0.0178 -0.0036 -0.9998
vn 0.0259 -0.0944 -0.9952
vn -0.3487 -0.3688 0.8616
vn -0.3944 -0.3680 0.8420
vn -0.2827 -0.4256 0.8596
vn -0.2782 -0.4604 0.8430
vn -0.0946 -0.5501 0.8297
vn -0.1349 -0.4295 0.8929
vn -0.9913 -0.0805 -0.1045
vn -0.9900 -0.0000 -0.1409
vn -0.8515 -0.0201 0.5239
vn -0.8205 0.0212 -0.5713
vn -0.7402 0.0099 -0.6723
vn -0.4726 -0.4434 -0.7616
vn -0.8111 -0.3212 -0.4889
vn -0.5976 0.0269 -0.8013
vn -0.7296 -0.0000 -0.6839
vn -0.8082 -0.5889 -0.0000
vn -0.6667 -0.3750 0.6441
vn -0.4500 0.0252 0.8927
vn -0.6486 0.0112 0.7611
vn 0.0994 0.9828 0.1554
vn -0.8040 0.5944 -0.0156
vn -0.7525 0.4248 -0.5032
vn 0.3223 0.5306 0.7839
vn 0.2579 0.3525 0.8996
vn 0.1376 0.2258 -0.9644
vn 0.1516 0.2602 -0.9536
vn 0.6135 0.7897 -0.0000
vn 0.5787 0.8074 -0.1149
vn 0.6931 0.1919 -0.6949
vn 0.6801 0.1841 -0.7096
vn 0.3682 -0.1815 -0.9118
vn -0.3550 0.1357 -0.9250
vn -0.5184 0.8536 -0.0520
vn -0.7361 0.6748 0.0522
vn -0.5571 0.8302 0.0217
vn 0.2851 0.9567 -0.0583
vn 0.2549 0.9670 -0.0000
vn 0.8968 0.4424 -0.0000
vn 0.5667 0.8235 -0.0271
vn 0.5586 0.8294 -0.0000
vn 0.5166 0.8561 -0.0155
vn 0.5287 0.8481 0.0341
vn -0.0018 -0.0289 -0.9996
vn -0.0207 0.0267 -0.9994
vn -0.3485 -0.4907 -0.7986
vn -0.3367 -0.4888 -0.8048
vn -0.1334 -0.5566 -0.8200
vn -0.1173 -0.5447 -0.8304
vn 0.1068 0.0453 -0.9932
vn -0.3021 -0.9512 0.0631
vn -0.2283 -0.9735 -0.0138
vn -0.0356 -0.0132 0.9993
vn -0.0251 -0.0000 0.9997
vn 0.1900 0.9810 -0.0388
vn 0.1056 0.9920 -0.0691
vn -0.1153 0.6270 -0.7705
vn -0.0070 -0.0713 -0.9974
vn 0.0090 0.0131 -0.9999
vn -0.5576 -0.8300 0.0175
vn -0.5253 -0.8506 -0.0240
vn -0.6335 -0.1189 -0.7646
vn -0.6334 -0.1191 -0.7646
vn 0.0192 -0.0081 -0.9998
vn -0.0000 -0.0573 -0.9984
vn 0.5138 0.0257 -0.8575
vn 0.9872 0.1004 -0.1236
vn 0.9865 0.1638 -0.0000
vn 0.3047 0.0310 0.9519
vn 0.3925 0.0688 0.9172
vn 0.8907 0.4535 0.0323
vn 0.8862 0.4633 -0.0030
vn 0.5109 0.2417 -0.8249
vn 0.5052 0.2378 -0.8296
vn 0.1151 -0.4193 -0.9005
vn 0.5894 -0.1833 -0.7868
vn 0.9780 -0.1887 -0.0883
vn -0.9928 -0.1198 -0.0000
vn -0.9757 -0.2140 -0.0463
vn 0.0691 0.0963 0.9929
vn -1.0000 0.0069 -0.0004
vn -0.9999 0.0094 0.0053
vn -0.9095 0.4062 -0.0888
vn -0.4576 0.8891 -0.0013
vn 0.0651 -0.0000 -0.9979
vn 0.0424 -0.0116 -0.9990
vn -0.9968 0.0802 -0.0001
vn -0.9972 0.0739 -0.0063
vn 0.0509 -0.0000 0.9987
vn 0.0313 -0.0099 0.9995
vn -0.8303 -0.5552 0.0490
vn -0.8443 -0.5334 0.0516
vn -0.4776 -0.2126 0.8524
vn -0.4875 -0.2581 0.8341
vn -0.3136 0.1149 0.9426
vn -0.2534 0.6623 0.7051
vn -0.1164 0.9919 -0.0508
vn 0.3365 0.1695 -0.9263
vn 0.1862 0.1297 -0.9739
vn 0.8866 0.4565 0.0742
vn 0.8780 0.4787 0.0026
vn 0.3574 0.1562 0.9208
vn 0.4695 0.2318 0.8519
vn -0.0300 -0.0235 0.9993
vn -0.0060 0.0821 0.9966
vn 0.1972 0.9792 -0.0487
vn 0.3800 0.9245 0.0303
vn 0.1603 0.7059 0.6900
vn -0.5132 -0.0021 0.8583
vn -0.5191 -0.0006 0.8547
vn -0.0000 -0.3822 0.9241
vn 0.0567 -0.5960 0.8010
vn 0.0942 -0.7178 0.6898
vn -0.0671 -0.5559 0.8285
vn -0.0594 -0.0007 0.9982
vn -0.0601 0.0006 0.9982
vn -0.0000 0.9605 0.2781
vn -0.0727 0.9222 0.3797
vn -0.0000 0.7748 0.6322
vn 0.0692 0.9661 0.2488
vn 0.0798 -0.0007 0.9968
vn 0.0793 0.0003 0.9969
vn 0.0740 -0.7733 0.6297
vn 0.6023 -0.0099 0.7982
vn 0.2773 0.9585 -0.0655
vn 0.2978 0.9496 -0.0982
vn 0.9768 -0.0414 -0.2102
vn 0.9780 -0.0346 -0.2059
vn 0.4134 -0.9095 -0.0437
vn 0.6426 -0.7450 -0.1788
vn -0.0384 0.8466 -0.5308
vn -0.0681 0.0095 -0.9976
vn -0.0722 -0.0001 -0.9974
vn -0.0333 -0.5248 -0.8505
vn -0.0529 -0.6308 -0.7741
vn -0.0451 -0.7098 -0.7029
vn -0.0718 -0.7797 -0.6221
vn -0.7008 -0.0097 -0.7133
vn -0.6272 -0.0008 -0.7789
vn 0.0017 -0.0064 -1.0000
vn -0.0000 -0.0060 -1.0000
vn 0.9999 -0.0102 -0.0016
vn 1.0000 -0.0090 -0.0000
vn -0.0188 -0.0110 0.9998
vn -0.0000 -0.0064 1.0000
vn -0.5780 -0.0052 0.8160
vn -0.4267 0.0057 0.9044
vn 0.6923 -0.0162 0.7214
vn 0.5508 0.0064 0.8346
vn -0.0034 -0.0089 1.0000
vn 0.0166 0.0012 0.9999
vn -0.9987 -0.0067 -0.0511
vn 0.7147 0.0200 -0.6991
vn 0.6280 0.0023 -0.7782
vn -0.0000 0.0158 -0.9999
vn 0.0156 0.0085 -0.9998
vn -0.9983 0.0272 0.0523
vn 0.0357 0.0239 0.9991
vn 0.0261 0.0210 -0.9994
vn 0.5530 -0.0141 0.8331
vn 0.4398 0.0051 0.8981
vn 0.0166 -0.0112 0.9998
vn -0.0000 -0.0208 0.9998
vn -0.9984 -0.0000 -0.0565
vn -0.9997 -0.0238 -0.0000
vn 0.0389 -0.0000 0.9992
vn -0.0000 -0.0337 0.9994
vn -0.9977 -0.0671 0.0096
vn -0.9967 -0.0817 -0.0000
vn 0.0287 -0.0000 -0.9996
vn -0.0000 -0.0273 -0.9996
vn -0.9993 -0.0234 0.0299
vn -0.0185 -0.0168 -0.9997
vn -0.0000 -0.0276 -0.9996
vn 0.7632 -0.0296 -0.6454
vn 0.6400 0.0024 -0.7684
vn 0.0434 -0.0000 0.9991
vn 0.0329 0.0273 0.9991
vn -0.0220 0.9986 0.0472
vn -0.0000 0.9965 0.0832
vn -0.0875 0.0084 0.9961
vn -0.0791 -0.0119 0.9968
vn 0.2001 0.9765 0.0797
vn -0.0000 0.9976 -0.0686
vn 0.0575 -0.0117 0.9983
vn 0.1315 -0.1488 0.9801
vn 0.1935 0.9811 -0.0000
vn -0.1686 0.9770 0.1308
vn 0.9969 -0.0755 -0.0203
vn 0.9616 0.2622 0.0805
vn -0.4438 0.8921 -0.0844
vn -0.9941 -0.0000 0.1086
vn -0.9939 0.0855 0.0697
vn -0.0084 0.9990 0.0430
vn -0.0000 0.9984 0.0561
vn 0.0290 -0.0203 -0.9994
vn 0.0539 0.0315 -0.9980
vn -0.0185 0.0271 -0.9995
vn -0.0280 -0.0000 -0.9996
vn 0.9951 -0.0000 -0.0985
vn 0.9946 0.1034 -0.0089
vn 0.6784 0.0240 -0.7343
vn -0.0619 0.0001 0.9981
vn -0.0775 0.0359 0.9963
vn -0.4645 0.0006 -0.8856
vn -0.4476 0.0051 -0.8942
vn 0.9021 -0.0040 0.4315
vn 0.9131 0.0276 0.4068
vn -0.0000 0.1683 -0.9857
vn -0.1311 -0.0000 -0.9914
vn -0.0524 -0.0000 0.9986
vn -0.0432 -0.0209 0.9988
vn 0.0338 0.0072 -0.9994
vn -0.0000 -0.0153 -0.9999
vn 0.4614 -0.4306 0.7757
vn 0.4687 -0.3849 0.7951
vn -0.0411 -0.0059 -0.9991
vn 0.0485 0.0057 -0.9988
vn 0.0170 -0.0354 -0.9992
vn -0.0492 0.0132 -0.9987
vn 0.5010 -0.0942 -0.8603
vn 0.5638 -0.0371 -0.8250
vn 0.9195 0.0314 -0.3918
vn 0.9069 0.0005 -0.4214
vn 1.0000 -0.0000 -0.0000
vn -0.9874 -0.0096 -0.1582
vn -0.9861 -0.0000 -0.1659
vn -0.9907 0.0173 -0.1352
vn -0.9829 0.0785 -0.1665
vn -0.9943 0.1062 -0.0000
vn -0.6841 0.7294 -0.0000
vn -0.3319 0.9433 -0.0000
vn -0.3060 0.9510 0.0447
vn 0.7093 -0.7049 -0.0034
vn 0.7124 -0.7018 -0.0000
vn 0.8392 -0.5438 -0.0000
vn 1.0000 0.0040 -0.0000
vn -0.0191 0.0178 -0.9997
vn -0.0124 -0.0174 -0.9998
vn 0.0348 -0.0325 0.9989
vn 0.0249 0.0352 0.9991
vn -0.9998 0.0207 0.0028
vn -0.9998 0.0179 0.0009
vn 0.9997 0.0255 -0.0000
vn 0.6825 -0.7309 -0.0000
vn 0.9977 -0.0084 -0.0679
vn 0.9988 -0.0000 -0.0492
vn -0.0320 0.9109 0.4115
vn -0.0000 0.7531 0.6579
vn -0.0000 -0.4215 0.9068
vn -0.0000 -0.4116 -0.9113
vn 0.1190 0.9640 -0.2378
vn 0.1534 0.9868 -0.0513
vn 0.7044 -0.7098 -0.0000
vn 0.3721 -0.9109 0.1780
vn 0.1664 0.9847 0.0520
vn 0.3782 -0.9257 -0.0000
vn 0.5490 -0.7960 -0.2551
vn -0.0146 -0.0023 0.9999
vn 0.0169 0.0142 0.9998
vn -0.0000 0.0117 0.9999
vn 0.0012 0.0111 0.9999
vn -0.0000 0.0227 -0.9997
vn 0.0201 0.0125 -0.9997
vn 0.0028 0.0180 -0.9998
vn -0.0018 0.0157 -0.9999
vn -0.2628 0.9487 -0.1757
vn 0.5784 0.0102 -0.8157
vn 0.4225 -0.0115 -0.9063
vn -0.0000 0.6310 -0.7758
vn -0.4578 0.0257 -0.8887
vn -0.6928 -0.0145 -0.7210
vn -0.7599 0.0138 0.6499
vn -0.7142 0.0026 0.6999
vn -0.0000 0.8090 0.5878
vn 0.6378 0.0144 0.7701
vn 0.7017 -0.0009 0.7124
vn -0.6732 0.6967 0.2479
vn -0.5346 0.8293 0.1625
vn -0.6874 0.7262 -0.0000
vn -0.6868 0.7268 -0.0024
vn -0.7292 0.6843 -0.0065
vn -0.7268 0.6868 0.0024
vn 0.1265 -0.5372 0.8339
vn -0.0134 0.0221 -0.9997
vn 0.0417 -0.0099 -0.9991
vn -0.0239 0.0076 -0.9997
vn -0.0031 0.0046 -1.0000
vn -0.7669 0.6411 -0.0292
vn -0.8061 0.5918 0.0028
vn 0.5216 -0.2760 0.8073
vn 0.5346 -0.3307 0.7777
vn 0.8880 -0.4598 -0.0000
vn -0.1129 -0.4038 -0.9078
vn -0.8692 0.4944 -0.0000
vn -0.4106 0.0533 0.9103
vn -0.3829 0.0409 0.9229
vn -0.3614 0.9285 -0.0854
vn -0.3194 0.9476 -0.0000
vn -0.2726 0.2338 0.9333
vn -0.3119 0.3037 0.9003
vn -0.3312 0.2910 -0.8976
vn -0.1649 0.1964 -0.9666
vn -0.1311 0.3336 -0.9335
vn -0.1262 0.3589 -0.9248
vn -0.1153 0.2348 0.9652
vn -0.1024 0.3259 0.9398
vn -0.3960 0.2050 -0.8951
vn -0.4686 0.2276 -0.8536
vn -0.9873 0.1588 -0.0000
vn -0.9873 0.1281 -0.0934
vn -0.0537 -0.4983 0.8653
vn -0.3401 0.7216 0.6031
vn -0.2132 0.9099 0.3558
vn -0.2374 0.8633 -0.4453
vn -0.2625 0.3073 -0.9147
vn -0.3380 0.4298 -0.8373
vn -0.5591 0.0864 -0.8246
vn -0.5122 0.0837 -0.8548
vn -0.2125 0.9105 -0.3547
vn 0.4477 0.0048 -0.8942
vn 0.4508 0.0040 -0.8926
vn -0.1445 0.5440 0.8266
vn -0.1386 0.5280 0.8378
vn -0.2568 0.4396 0.8607
vn -0.3599 0.6412 0.6778
vn -0.1784 0.2008 0.9632
vn -0.4047 0.3769 0.8332
vn -0.3629 0.4100 -0.8368
vn -0.5953 0.7066 -0.3826
vn -0.0541 -0.4995 0.8646
vn 0.3397 -0.6575 -0.6726
vn 0.0606 -0.5420 -0.8382
vn -0.3508 0.9328 -0.0829
vn -0.5554 0.8305 -0.0428
vn 0.0891 0.4588 0.8841
vn 0.0975 0.5580 0.8241
vn -0.0246 -0.0545 0.9982
vn 0.0099 -0.0379 0.9992
vn 0.0304 -0.0079 0.9995
vn 0.0384 0.0379 0.9985
vn 0.0178 -0.0036 0.9998
vn -0.0259 -0.0944 0.9952
vn 0.3483 -0.3688 -0.8618
vn 0.3944 -0.3680 -0.8420
vn 0.2827 -0.4256 -0.8596
vn 0.2782 -0.4604 -0.8430
vn 0.0946 -0.5501 -0.8297
vn 0.1349 -0.4295 -0.8929
vn 0.9913 -0.0805 0.1045
vn 0.9900 -0.0000 0.1409
vn 0.8515 -0.0201 -0.5239
vn 0.8205 0.0212 0.5713
vn 0.7399 0.0099 0.6726
vn 0.4726 -0.4434 0.7616
vn 0.8111 -0.3212 0.4889
vn 0.5976 0.0269 0.8013
vn 0.7296 -0.0000 0.6839
vn 0.8082 -0.5889 -0.0000
vn 0.6667 -0.3750 -0.6441
vn 0.4400 0.0258 -0.8976
vn 0.6486 0.0113 -0.7611
vn -0.1083 0.9826 -0.1508
vn 0.8055 0.5924 0.0155
vn 0.7609 0.3656 0.5360
vn -0.3223 0.5306 -0.7839
vn -0.2579 0.3525 -0.8996
vn -0.1480 0.2204 0.9641
vn -0.1818 0.3044 0.9350
vn -0.6135 0.7897 -0.0000
vn -0.5801 0.8065 0.1140
vn -0.6931 0.1919 0.6949
vn -0.6801 0.1841 0.7096
vn -0.3682 -0.1815 0.9118
vn 0.3550 0.1357 0.9250
vn 0.5243 0.8499 0.0518
vn 0.7215 0.6909 -0.0464
vn 0.5826 0.8125 -0.0214
vn -0.2851 0.9567 0.0583
vn -0.2549 0.9670 -0.0000
vn -0.8968 0.4424 -0.0000
vn -0.5667 0.8235 0.0271
vn -0.5586 0.8294 -0.0000
vn -0.5166 0.8561 0.0155
vn -0.5287 0.8481 -0.0341
vn 0.0018 -0.0289 0.9996
vn 0.0207 0.0267 0.9994
vn 0.3485 -0.4907 0.7986
vn 0.3367 -0.4888 0.8048
vn 0.1334 -0.5566 0.8200
vn 0.1173 -0.5447 0.8304
vn -0.1068 0.0453 0.9932
vn 0.3021 -0.9512 -0.0631
vn 0.2283 -0.9735 0.0138
vn 0.0356 -0.0132 -0.9993
vn 0.0251 -0.0000 -0.9997
vn -0.1900 0.9810 0.0388
vn -0.1056 0.9920 0.0691
vn 0.1153 0.6270 0.7705
vn 0.0070 -0.0713 0.9974
vn -0.0090 0.0131 0.9999
vn 0.5576 -0.8300 -0.0175
vn 0.5253 -0.8506 0.0240
vn 0.6335 -0.1189 0.7646
vn 0.6334 -0.1191 0.7646
vn -0.0074 -0.0383 0.9992
vn -0.0000 -0.0573 0.9984
vn -0.5567 0.0347 0.8300
vn -0.5138 0.0230 0.8576
vn -0.9941 0.1011 0.0383
vn -0.9928 0.1194 -0.0000
vn -0.3047 0.0310 -0.9519
vn -0.3925 0.0688 -0.9172
vn -0.8907 0.4535 -0.0323
vn -0.8862 0.4633 0.0030
vn -0.5109 0.2417 0.8249
vn -0.5052 0.2378 0.8296
vn -0.1151 -0.4193 0.9005
vn -0.5894 -0.1833 0.7868
vn -0.9780 -0.1887 0.0883
vn 0.9928 -0.1198 -0.0000
vn 0.9757 -0.2140 0.0463
vn -0.0691 0.0963 -0.9929
vn 1.0000 0.0069 0.0004
vn 0.9999 0.0094 -0.0053
vn 0.9095 0.4062 0.0888
vn 0.4576 0.8891 0.0013
vn -0.0651 -0.0000 0.9979
vn -0.0424 -0.0116 0.9990
vn 0.9968 0.0802 0.0001
vn 0.9972 0.0739 0.0063
vn -0.0509 -0.0000 -0.9987
vn -0.0313 -0.0099 -0.9995
vn 0.8303 -0.5552 -0.0490
vn 0.8443 -0.5334 -0.0516
vn 0.4776 -0.2124 -0.8525
vn 0.4875 -0.2581 -0.8341
vn 0.3136 0.1148 -0.9426
vn 0.2534 0.6620 -0.7054
vn 0.1164 0.9919 0.0507
vn -0.3365 0.1695 0.9263
vn -0.1862 0.1297 0.9739
vn -0.8866 0.4565 -0.0742
vn -0.8780 0.4787 -0.0026
vn -0.3519 0.1532 -0.9234
vn -0.4691 0.2324 -0.8520
vn 0.0301 -0.0233 -0.9993
vn 0.0061 0.0823 -0.9966
vn -0.1972 0.9792 0.0487
vn -0.3800 0.9245 -0.0303
vn -0.1596 0.7048 -0.6912
vn 0.5132 -0.0021 -0.8583
vn 0.5191 -0.0006 -0.8547
vn -0.0000 -0.3822 -0.9241
vn -0.0567 -0.5960 -0.8010
vn -0.0942 -0.7178 -0.6898
vn 0.0671 -0.5559 -0.8285
vn 0.0594 -0.0007 -0.9982
vn 0.0601 0.0006 -0.9982
vn -0.0000 0.9605 -0.2781
vn 0.0727 0.9222 -0.3797
vn -0.0000 0.7748 -0.6322
vn -0.0692 0.9661 -0.2488
vn -0.0798 -0.0007 -0.9968
vn -0.0793 0.0003 -0.9969
vn -0.0740 -0.7733 -0.6297
vn -0.6023 -0.0099 -0.7982
vn -0.2773 0.9585 0.0655
vn -0.2978 0.9496 0.0982
vn -0.9768 -0.0414 0.2102
vn -0.9780 -0.0346 0.2059
vn -0.4134 -0.9095 0.0437
vn -0.6426 -0.7450 0.1788
vn 0.0384 0.8466 0.5308
vn 0.0681 0.0095 0.9976
vn 0.0722 -0.0001 0.9974
vn 0.0333 -0.5248 0.8505
vn 0.0529 -0.6308 0.7741
vn 0.0451 -0.7098 0.7029
vn 0.0718 -0.7797 0.6221
vn 0.7008 -0.0097 0.7133
vn 0.6272 -0.0008 0.7789
vn -0.0017 -0.0064 1.0000
vn -0.0000 -0.0060 1.0000
vn -0.9999 -0.0102 0.0016
vn -1.0000 -0.0090 -0.0000
vn 0.0188 -0.0110 -0.9998
vn -0.0000 -0.0064 -1.0000
vn 0.5780 -0.0052 -0.8160
vn 0.4267 0.0057 -0.9044
vn -0.6923 -0.0162 -0.7214
vn -0.5508 0.0064 -0.8346
vn 0.0034 -0.0089 -1.0000
vn -0.0166 0.0012 -0.9999
vn 0.9987 -0.0067 0.0511
vn -0.7147 0.0200 0.6991
vn -0.6280 0.0023 0.7782
vn -0.0000 0.0158 0.9999
vn -0.0156 0.0085 0.9998
vn 0.9983 0.0272 -0.0523
vn -0.0357 0.0239 -0.9991
vn -0.0261 0.0210 0.9994
vn -0.5530 -0.0141 -0.8331
vn -0.4398 0.0051 -0.8981
vn -0.0166 -0.0112 -0.9998
vn -0.0000 -0.0208 -0.9998
vn 0.9984 -0.0000 0.0565
vn 0.9997 -0.0238 -0.0000
vn -0.0389 -0.0000 -0.9992
vn -0.0000 -0.0337 -0.9994
vn 0.9977 -0.0671 -0.0096
vn 0.9967 -0.0817 -0.0000
vn -0.0287 -0.0000 0.9996
vn -0.0000 -0.0273 0.9996
vn 0.9993 -0.0234 -0.0299
vn 0.0185 -0.0168 0.9997
vn -0.0000 -0.0276 0.9996
vn -0.7632 -0.0296 0.6454
vn -0.6400 0.0024 0.7684
vn -0.0434 -0.0000 -0.9991
vn -0.0329 0.0273 -0.9991
vn 0.0220 0.9986 -0.0472
vn -0.0000 0.9965 -0.0832
vn 0.0875 0.0084 -0.9961
vn 0.0791 -0.0119 -0.9968
vn -0.2001 0.9765 -0.0797
vn -0.0000 0.9976 0.0686
vn -0.0575 -0.0117 -0.9983
vn -0.1315 -0.1488 -0.9801
vn -0.1935 0.9811 -0.0000
vn 0.1686 0.9770 -0.1308
vn -0.9969 -0.0755 0.0203
vn -0.9616 0.2622 -0.0805
vn 0.4438 0.8921 0.0844
vn 0.9941 -0.0000 -0.1086
vn 0.9939 0.0855 -0.0697
vn 0.0084 0.9990 -0.0430
vn -0.0000 0.9984 -0.0561
vn -0.0290 -0.0203 0.9994
vn -0.0539 0.0315 0.9980
vn 0.0185 0.0271 0.9995
vn 0.0280 -0.0000 0.9996
vn -0.9951 -0.0000 0.0985
vn -0.9946 0.1034 0.0089
vn -0.6784 0.0240 0.7343
vn 0.1484 0.9768 0.1544
vn 0.3363 0.8557 -0.3932
vn 0.2784 0.9605 -0.0027
vn 0.2483 0.9657 0.0757
vn 0.1597 0.8955 0.4155
vn 0.3416 0.9378 0.0615
vn -0.2784 0.9605 0.0027
vn -0.3379 0.8598 0.3828
vn -0.1484 0.9775 -0.1500
vn -0.3413 0.9379 -0.0621
vn -0.1803 0.9813 -0.0666
vn -0.2489 0.9339 -0.2567
vt 0.166537 -0.569611
vt 0.208056 -0.562940
vt 0.208056 -0.576330
vt 0.722130 -0.748524
vt 0.759390 -0.692605
vt 0.759390 -0.748524
vt 0.166537 -0.823063
vt 0.166537 -0.858237
vt 0.131016 -0.850287
vt 0.042916 -0.499286
vt 0.007393 -0.483107
vt 0.042916 -0.483107
vt 0.140690 -0.277671
vt 0.177939 -0.267022
vt 0.140690 -0.281118
vt 0.067249 -0.424434
vt 0.017117 -0.389875
vt 0.076552 -0.389875
vt 0.646864 -0.389875
vt 0.621972 -0.411195
vt 0.576649 -0.411195
vt 0.531558 -0.350039
vt 0.637393 -0.335299
vt 0.646403 -0.350039
vt 0.877856 -0.692605
vt 0.876409 -0.621869
vt 0.948932 -0.621869
vt 0.782304 -0.335299
vt 0.745001 -0.335299
vt 0.771402 -0.319783
vt 0.967175 -0.944350
vt 0.921671 -0.891857
vt 0.967175 -0.891471
vt 0.374349 -0.568384
vt 0.374349 -0.558501
vt 0.390280 -0.569611
vt 0.454850 -0.900637
vt 0.448804 -0.900637
vt 0.438985 -0.883515
vt 0.742617 -0.350039
vt 0.752036 -0.350039
vt 0.427990 -0.389875
vt 0.497081 -0.411195
vt 0.451758 -0.411195
vt 0.664373 -0.569611
vt 0.621324 -0.582904
vt 0.621324 -0.569611
vt 0.234564 -0.389875
vt 0.171875 -0.424711
vt 0.163536 -0.389876
vt 0.752618 -0.389875
vt 0.743027 -0.411195
vt 0.742617 -0.389875
vt 0.759390 -0.891857
vt 0.722130 -0.844687
vt 0.759390 -0.844687
vt 0.709401 -0.854235
vt 0.709401 -0.844378
vt 0.374349 -0.846546
vt 0.374349 -0.834498
vt 0.390280 -0.834398
vt 0.208056 -0.829046
vt 0.215370 -0.817398
vt 0.452781 -0.986057
vt 0.380321 -0.900631
vt 0.382022 -0.986057
vt 0.374349 -0.900630
vt 0.390280 -0.883510
vt 0.374349 -0.742740
vt 0.374349 -0.736831
vt 0.390280 -0.742708
vt 0.045687 -0.199993
vt 0.007270 -0.197163
vt 0.007270 -0.169894
vt 0.140690 -0.201421
vt 0.177944 -0.168247
vt 0.177942 -0.198062
vt 0.045687 -0.281118
vt 0.007270 -0.267022
vt 0.045687 -0.272982
vt 0.140690 -0.272885
vt 0.045687 -0.209119
vt 0.140690 -0.210380
vt 0.438985 -0.654822
vt 0.454850 -0.651340
vt 0.454850 -0.660805
vt 0.664373 -0.846546
vt 0.621324 -0.846546
vt 0.621324 -0.829816
vt 0.734421 -0.389875
vt 0.734341 -0.350039
vt 0.621324 -0.483107
vt 0.582410 -0.483107
vt 0.536865 -0.411195
vt 0.512546 -0.430438
vt 0.536821 -0.389875
vt 0.530256 -0.389875
vt 0.537781 -0.335299
vt 0.396152 -0.176665
vt 0.495778 -0.267022
vt 0.396152 -0.267022
vt 0.804862 -0.169894
vt 0.804863 -0.197163
vt 0.757685 -0.173405
vt 0.233871 -0.174676
vt 0.340540 -0.020559
vt 0.288115 -0.086853
vt 0.288115 -0.020559
vt 0.702497 -0.089527
vt 0.651016 -0.020559
vt 0.702497 -0.020559
vt 0.877856 -0.891857
vt 0.948932 -0.962592
vt 0.868081 -0.962592
vt 0.765529 -0.962592
vt 0.751386 -0.962592
vt 0.756862 -0.990606
vt 0.967175 -0.883047
vt 0.995188 -0.888810
vt 0.803206 -0.692605
vt 0.727643 -0.621869
vt 0.809569 -0.621869
vt 0.967175 -0.688883
vt 0.921671 -0.692605
vt 0.967175 -0.640112
vt 0.967175 -0.697843
vt 0.331255 -0.389875
vt 0.330937 -0.350039
vt 0.425482 -0.350039
vt 0.166853 -0.350039
vt 0.235001 -0.350039
vt 0.727643 -0.990606
vt 0.727643 -0.962592
vt 0.948933 -0.593856
vt 0.875001 -0.593856
vt 0.509905 -0.574714
vt 0.509905 -0.483107
vt 0.166537 -0.723607
vt 0.166537 -0.654822
vt 0.208056 -0.654822
vt 0.213592 -0.725897
vt 0.621324 -0.660830
vt 0.621324 -0.748724
vt 0.509905 -0.748724
vt 0.509905 -0.653900
vt 0.503480 -0.986057
vt 0.509905 -0.840594
vt 0.621324 -0.986057
vt 0.664373 -0.483107
vt 0.071932 -0.350039
vt 0.016419 -0.350039
vt 0.709401 -0.744407
vt 0.681387 -0.744458
vt 0.681387 -0.640112
vt 0.709401 -0.640112
vt 0.995188 -0.944350
vt 0.438985 -0.499804
vt 0.438985 -0.569611
vt 0.390280 -0.499803
vt 0.438985 -0.748724
vt 0.390280 -0.654822
vt 0.438985 -0.839799
vt 0.131016 -0.654822
vt 0.131016 -0.735147
vt 0.042916 -0.743233
vt 0.042916 -0.654822
vt 0.131016 -0.483107
vt 0.007393 -0.748724
vt 0.007393 -0.654822
vt 0.595404 -0.181830
vt 0.595404 -0.267022
vt 0.804867 -0.267022
vt 0.757685 -0.267022
vt 0.233870 -0.085530
vt 0.177949 -0.054972
vt 0.289438 -0.411195
vt 0.404184 -0.411195
vt 0.249363 -0.335299
vt 0.291812 -0.335299
vt 0.663907 -0.335299
vt 0.707697 -0.335299
vt 0.014083 -0.453067
vt 0.008161 -0.396257
vt 0.175752 -0.315189
vt 0.229726 -0.329856
vt 0.231563 -0.451409
vt 0.016780 -0.329620
vt 0.061819 -0.315565
vt 0.276319 -0.170277
vt 0.276319 -0.083089
vt 0.351885 -0.267022
vt 0.352045 -0.175398
vt 0.639219 -0.267022
vt 0.639219 -0.179451
vt 0.713869 -0.267022
vt 0.713869 -0.175437
vt 0.702497 -0.253373
vt 0.651016 -0.253373
vt 0.651016 -0.177042
vt 0.702497 -0.170022
vt 0.709401 -0.944350
vt 0.340338 -0.171439
vt 0.288115 -0.167838
vt 0.803206 -0.891856
vt 0.814578 -0.880494
vt 0.866060 -0.880495
vt 0.866059 -0.703967
vt 0.814578 -0.703967
vt 0.340229 -0.253373
vt 0.967175 -0.962592
vt 0.967175 -0.990605
vt 0.948932 -0.990605
vt 0.709401 -0.962592
vt 0.709401 -0.990606
vt 0.967175 -0.593856
vt 0.967175 -0.621869
vt 0.709401 -0.593856
vt 0.727643 -0.593856
vt 0.709401 -0.621869
vt 0.325688 -0.564620
vt 0.324724 -0.554600
vt 0.501063 -0.663222
vt 0.501063 -0.748724
vt 0.454850 -0.748724
vt 0.328565 -0.733213
vt 0.328565 -0.654822
vt 0.374349 -0.654822
vt 0.007393 -0.846546
vt 0.042916 -0.854790
vt 0.328565 -0.846546
vt 0.328565 -0.834158
vt 0.131016 -0.569611
vt 0.042916 -0.569611
vt 0.007393 -0.569611
vt 0.454850 -0.483107
vt 0.454850 -0.574893
vt 0.561251 -0.430438
vt 0.454850 -0.840414
vt 0.501063 -0.483107
vt 0.501063 -0.576780
vt 0.367378 -0.335299
vt 0.414362 -0.411195
vt 0.501063 -0.846546
vt 0.501063 -0.838237
vt 0.669369 -0.411195
vt 0.659191 -0.411195
vt 0.844797 -0.389875
vt 0.835320 -0.389875
vt 0.835093 -0.350039
vt 0.844797 -0.350039
vt 0.328565 -0.986057
vt 0.321008 -0.986057
vt 0.321007 -0.846546
vt 0.328565 -0.740844
vt 0.321007 -0.833841
vt 0.321007 -0.736207
vt 0.321007 -0.654822
vt 0.411644 -0.335299
vt 0.826095 -0.335299
vt 0.321007 -0.575832
vt 0.208056 -0.986057
vt 0.664373 -0.654822
vt 0.664373 -0.748724
vt 0.664373 -0.991597
vt 0.681387 -0.847900
vt 0.208056 -0.991597
vt 0.326861 -0.991597
vt 0.166537 -0.991597
vt 0.166537 -0.986057
vt 0.131016 -0.986057
vt 0.131016 -0.991597
vt 0.042916 -0.991597
vt 0.621324 -0.991597
vt 0.503090 -0.991597
vt 0.415329 -0.991597
vt 0.007394 -0.991597
vt 0.166537 -0.483107
vt 0.208056 -0.483107
vt 0.321007 -0.483107
vt 0.328565 -0.483107
vt 0.374349 -0.483107
vt 0.328565 -0.574099
vt 0.045687 -0.053715
vt 0.140690 -0.051689
vt 0.501063 -0.650120
vt 0.719950 -0.319783
vt 0.782559 -0.411195
vt 0.438169 -0.335299
vt 0.355721 -0.319783
vt 0.303608 -0.319783
vt 0.352336 -0.009197
vt 0.396152 -0.009197
vt 0.595404 -0.009197
vt 0.639219 -0.009197
vt 0.713869 -0.086349
vt 0.757685 -0.084784
vt 0.804857 -0.058965
vt 0.288115 -0.253373
vt 0.276319 -0.267022
vt 0.233871 -0.267022
vt 0.007270 -0.058965
vt 0.713869 -0.009197
vt 0.757685 -0.009197
vt 0.804855 -0.009197
vt 0.007270 -0.009196
vt 0.045687 -0.009196
vt 0.140690 -0.009196
vt 0.177951 -0.009196
vt 0.233870 -0.009197
vt 0.276319 -0.009197
vt 0.872264 -0.990605
vt 0.803622 -0.962592
vt 0.803662 -0.990605
vt 0.995189 -0.691833
vt 0.681387 -0.944350
vt 0.811527 -0.593856
vt 0.995189 -0.640112
vt 0.621324 -0.660880
vt 0.509905 -0.654015
vt 0.502974 -0.986057
vt 0.509905 -0.840636
vt 0.328565 -0.553454
vt 0.454850 -0.840381
vt 0.321007 -0.555708
vt 0.326833 -0.991597
vt 0.503057 -0.991597
vt 0.417055 -0.991597
s 0
g off
g 78886_Material.003
usemtl Material.003
f 1/1/1 3/3/1 2/2/1
f 4/4/2 6/6/2 5/5/2
f 9/7/3 11/9/3 10/8/3
f 12/10/4 14/12/4 13/11/4
f 19/13/5 21/15/5 20/14/5
f 13/16/6 14/18/6 22/17/6
f 23/19/7 25/21/7 24/20/7
f 26/22/8 28/24/8 27/23/8
f 29/25/9 31/27/9 30/26/9
f 32/28/10 34/30/10 33/29/10
f 37/31/2 39/33/2 38/32/2
f 40/34/11 42/36/11 41/35/11
f 43/37/12 45/39/12 44/38/12
f 48/40/13 49/41/13 33/29/13
f 50/42/14 52/44/14 51/43/14
f 53/45/15 55/47/15 54/46/15
f 56/48/16 16/50/16 15/49/16
f 57/51/17 59/53/17 58/52/17
f 60/54/2 62/56/2 61/55/2
f 63/57/18 61/55/18 64/58/18
f 65/59/19 67/61/19 66/60/19
f 68/62/20 69/63/20 9/7/20
f 43/37/21 44/38/21 70/64/21
f 71/65/22 73/67/22 72/66/22
f 74/68/23 73/67/23 71/65/23
f 75/69/24 77/71/24 76/70/24
f 83/72/25 85/74/25 84/73/25
f 86/75/26 88/77/26 87/76/26
f 17/78/27 89/80/27 18/79/27
f 90/81/28 19/13/28 20/14/28
f 91/82/29 83/72/29 84/73/29
f 88/77/30 86/75/30 92/83/30
f 93/84/31 95/86/31 94/85/31
f 8/87/32 97/89/32 96/88/32
f 58/52/33 59/53/33 102/90/33
f 103/91/34 48/40/34 33/29/34
f 104/92/35 58/93/35 55/47/35
f 51/43/36 106/95/36 105/94/36
f 107/96/37 108/97/37 105/94/37
f 109/98/38 26/22/38 27/23/38
f 121/99/39 122/101/39 109/100/39
f 85/102/40 120/104/40 84/103/40
f 87/76/41 88/77/41 111/105/41
f 131/106/42 132/108/42 129/107/42
f 133/109/43 135/111/43 134/110/43
f 137/112/44 139/114/44 138/113/44
f 60/54/45 143/116/45 142/115/45
f 142/115/46 143/116/46 144/117/46
f 39/33/47 145/118/47 38/32/47
f 145/118/48 39/33/48 146/119/48
f 147/120/49 148/122/49 149/121/49
f 150/123/50 152/125/50 151/124/50
f 153/126/51 150/123/51 151/124/51
f 154/1/52 156/3/52 155/2/52
f 157/4/2 159/6/2 158/5/2
f 162/7/53 164/9/53 163/8/53
f 165/10/54 167/12/54 166/11/54
f 172/13/55 174/15/55 173/14/55
f 166/16/56 167/18/56 175/17/56
f 176/19/57 178/21/57 177/20/57
f 179/22/58 181/24/58 180/23/58
f 182/25/59 184/27/59 183/26/59
f 185/28/60 187/30/60 186/29/60
f 190/31/2 192/33/2 191/32/2
f 193/34/61 195/36/61 194/35/61
f 196/37/62 198/39/62 197/38/62
f 201/40/63 202/41/63 186/29/63
f 203/42/64 205/44/64 204/43/64
f 206/45/65 208/47/65 207/46/65
f 209/48/66 169/50/66 168/49/66
f 210/51/67 212/53/67 211/52/67
f 213/54/2 215/56/2 214/55/2
f 216/57/68 214/55/68 217/58/68
f 218/59/69 220/61/69 219/60/69
f 221/62/70 222/63/70 162/7/70
f 196/37/71 197/38/71 223/64/71
f 224/65/72 226/67/72 225/66/72
f 227/68/73 226/67/73 224/65/73
f 228/69/74 230/71/74 229/70/74
f 236/72/75 238/74/75 237/73/75
f 239/75/76 241/77/76 240/76/76
f 170/78/77 242/80/77 171/79/77
f 243/81/78 172/13/78 173/14/78
f 244/82/79 236/72/79 237/73/79
f 241/77/80 239/75/80 245/83/80
f 246/84/81 248/86/81 247/85/81
f 161/87/82 250/89/82 249/88/82
f 211/52/83 212/53/83 255/90/83
f 256/91/84 201/40/84 186/29/84
f 257/92/85 211/93/85 208/47/85
f 204/43/86 259/95/86 258/94/86
f 260/96/87 261/97/87 258/94/87
f 262/98/88 179/22/88 180/23/88
f 274/99/89 275/101/89 262/100/89
f 238/102/90 273/104/90 237/103/90
f 240/76/91 241/77/91 264/105/91
f 284/106/43 285/108/43 282/107/43
f 286/109/42 288/111/42 287/110/42
f 290/112/92 292/114/92 291/113/92
f 213/54/93 296/116/93 295/115/93
f 295/115/94 296/116/94 297/117/94
f 192/33/95 298/118/95 191/32/95
f 298/118/96 192/33/96 299/119/96
f 300/120/97 301/122/97 302/121/97
f 303/123/98 305/125/98 304/124/98
f 306/126/99 303/123/99 304/124/99
f 307/127/100 309/129/100 308/128/100
f 307/127/101 50/42/101 309/129/101
f 59/53/102 49/41/102 48/40/102
f 59/53/103 57/51/103 49/41/103
f 21/130/104 56/48/104 310/131/104
f 21/130/105 16/50/105 56/48/105
f 143/116/106 311/132/106 144/117/106
f 143/116/107 312/133/107 311/132/107
f 313/134/108 30/26/108 31/27/108
f 313/134/109 314/135/109 30/26/109
f 151/124/2 31/27/2 29/25/2
f 151/124/2 152/125/2 31/27/2
f 58/93/110 315/136/110 55/47/110
f 58/93/111 316/137/111 315/136/111
f 78/138/112 318/140/112 317/139/112
f 78/138/113 79/141/113 318/140/113
f 101/142/114 320/144/114 319/143/114
f 101/142/115 321/145/115 320/144/115
f 322/146/116 96/88/116 323/147/116
f 322/146/117 324/148/117 96/88/117
f 13/149/118 55/47/118 53/45/118
f 13/149/119 104/92/119 55/47/119
f 17/150/120 22/17/120 14/18/120
f 17/150/121 325/151/121 22/17/121
f 326/152/122 328/154/122 327/153/122
f 326/152/122 329/155/122 328/154/122
f 39/33/123 330/156/123 146/119/123
f 39/33/124 37/31/124 330/156/124
f 28/24/125 107/96/125 23/19/125
f 28/24/126 26/22/126 107/96/126
f 331/157/127 42/36/127 47/158/127
f 331/157/127 106/159/127 42/36/127
f 93/84/128 77/71/128 332/160/128
f 93/84/128 333/161/128 77/71/128
f 45/39/129 67/61/129 74/68/129
f 45/39/130 98/162/130 67/61/130
f 334/163/131 81/165/131 80/164/131
f 334/163/132 335/166/132 81/165/132
f 16/167/133 14/12/133 12/10/133
f 16/50/134 17/150/134 14/18/134
f 16/50/134 21/130/134 17/150/134
f 81/165/135 100/169/135 82/168/135
f 81/165/136 335/166/136 100/169/136
f 317/139/137 80/164/137 78/138/137
f 317/139/138 334/163/138 80/164/138
f 121/99/139 27/171/139 336/170/139
f 121/99/140 109/100/140 27/171/140
f 120/104/40 18/172/40 84/103/40
f 120/104/141 337/173/141 18/172/141
f 21/15/142 19/13/142 17/78/142
f 128/174/143 87/76/143 111/105/143
f 128/174/144 127/175/144 87/76/144
f 110/176/145 50/42/145 307/127/145
f 110/176/146 338/177/146 50/42/146
f 339/178/147 310/131/147 340/179/147
f 27/180/148 28/24/148 341/181/148
f 104/182/149 22/17/149 342/183/149
f 104/182/150 13/16/150 22/17/150
f 20/184/151 310/131/151 339/185/151
f 20/184/152 21/130/152 310/131/152
f 15/49/153 110/186/153 56/48/153
f 337/187/154 17/150/154 18/188/154
f 337/187/155 325/151/155 17/150/155
f 113/189/156 128/174/156 111/105/156
f 113/189/157 130/190/157 128/174/157
f 35/191/158 121/99/158 114/192/158
f 35/191/159 122/101/159 121/99/159
f 341/193/160 336/170/160 27/171/160
f 341/193/161 117/194/161 336/170/161
f 32/195/162 120/104/162 118/196/162
f 32/195/163 337/173/163 120/104/163
f 34/197/43 116/199/43 343/198/43
f 34/197/43 119/200/43 116/199/43
f 60/54/164 312/133/164 143/116/164
f 60/54/2 344/201/2 312/133/2
f 138/113/2 38/32/2 137/112/2
f 138/113/2 37/31/2 38/32/2
f 115/202/42 129/107/42 112/203/42
f 115/202/42 131/106/42 129/107/42
f 149/121/2 5/5/2 147/120/2
f 149/121/2 329/155/2 5/5/2
f 341/193/165 116/199/165 117/194/165
f 341/193/166 343/198/166 116/199/166
f 137/112/167 135/205/167 140/204/167
f 137/112/167 134/206/167 135/205/167
f 118/196/168 34/197/168 32/195/168
f 118/196/169 119/200/169 34/197/169
f 113/189/170 129/107/170 130/190/170
f 113/189/171 112/203/171 129/107/171
f 147/120/172 131/207/172 29/25/172
f 147/120/172 132/208/172 131/207/172
f 114/192/173 36/209/173 35/191/173
f 114/192/174 115/202/174 36/209/174
f 138/113/175 330/211/175 37/210/175
f 138/113/175 345/212/175 330/211/175
f 344/213/176 311/132/176 312/133/176
f 344/213/176 346/214/176 311/132/176
f 313/134/177 152/216/177 347/215/177
f 313/134/177 31/27/177 152/216/177
f 328/217/178 149/121/178 348/218/178
f 328/217/178 329/219/178 149/121/178
f 41/35/179 349/220/179 40/34/179
f 41/35/180 350/221/180 349/220/180
f 351/222/181 353/224/181 352/223/181
f 351/222/182 95/86/182 353/224/182
f 76/70/183 355/226/183 354/225/183
f 76/70/184 356/227/184 355/226/184
f 9/7/185 10/8/185 68/62/185
f 8/228/186 81/165/186 82/168/186
f 8/228/187 7/229/187 81/165/187
f 323/147/188 319/143/188 320/144/188
f 323/147/189 97/89/189 319/143/189
f 357/230/190 66/60/190 358/231/190
f 357/230/191 65/59/191 66/60/191
f 317/139/192 3/3/192 1/1/192
f 317/139/193 318/140/193 3/3/193
f 359/232/42 317/139/42 1/1/42
f 359/232/42 334/163/42 317/139/42
f 335/166/194 359/232/194 360/233/194
f 335/166/194 334/163/194 359/232/194
f 100/169/43 360/233/43 53/234/43
f 100/169/43 335/166/43 360/233/43
f 315/136/195 54/46/195 55/47/195
f 333/161/196 47/158/196 42/36/196
f 333/161/196 93/84/196 47/158/196
f 25/235/197 47/158/197 46/236/197
f 25/235/198 331/157/198 47/158/198
f 105/94/199 331/237/199 25/21/199
f 105/94/200 106/95/200 331/237/200
f 95/86/201 332/160/201 353/224/201
f 95/86/202 93/84/202 332/160/202
f 76/70/203 333/161/203 356/227/203
f 76/70/204 77/71/204 333/161/204
f 74/68/205 65/59/205 73/67/205
f 74/68/206 67/61/206 65/59/206
f 45/39/207 99/238/207 98/162/207
f 45/39/208 43/37/208 99/238/208
f 42/36/209 356/227/209 333/161/209
f 42/36/210 40/34/210 356/227/210
f 25/235/211 361/240/211 24/239/211
f 25/235/212 46/236/212 361/240/212
f 308/128/213 309/129/213 35/241/213
f 52/242/214 50/42/214 338/177/214
f 322/146/215 323/147/215 362/243/215
f 323/147/216 352/223/216 363/244/216
f 323/147/217 320/144/217 352/223/217
f 316/137/218 361/240/218 315/136/218
f 316/137/219 24/239/219 361/240/219
f 316/245/220 23/19/220 24/246/220
f 22/247/221 364/249/221 342/248/221
f 22/247/222 325/250/222 364/249/222
f 365/251/223 367/253/223 366/252/223
f 365/251/224 357/230/224 367/253/224
f 368/254/225 369/255/225 358/231/225
f 368/254/226 370/256/226 369/255/226
f 354/225/227 371/257/227 370/256/227
f 354/225/228 355/226/228 371/257/228
f 320/144/229 351/222/229 352/223/229
f 320/144/230 321/145/230 351/222/230
f 122/258/231 35/241/231 309/129/231
f 337/259/232 364/249/232 325/250/232
f 337/259/233 32/28/233 364/249/233
f 23/19/234 105/94/234 25/21/234
f 23/19/235 107/96/235 105/94/235
f 3/3/236 350/221/236 2/2/236
f 3/3/237 349/220/237 350/221/237
f 371/257/238 3/3/238 318/140/238
f 371/257/239 372/260/239 3/3/239
f 371/257/240 79/141/240 370/256/240
f 371/257/241 318/140/241 79/141/241
f 367/253/242 373/261/242 366/252/242
f 367/253/243 68/62/243 373/261/243
f 319/143/244 100/262/244 101/142/244
f 319/143/245 82/263/245 100/262/245
f 8/87/246 319/143/246 97/89/246
f 8/87/247 82/263/247 319/143/247
f 382/264/248 96/88/248 324/148/248
f 382/264/249 8/87/249 96/88/249
f 61/55/2 326/152/2 64/58/2
f 61/55/2 4/4/2 326/152/2
f 64/58/250 327/153/250 374/265/250
f 64/58/251 326/152/251 327/153/251
f 63/57/252 64/58/252 374/265/252
f 329/155/2 4/4/2 5/5/2
f 329/155/2 326/152/2 4/4/2
f 375/266/253 366/252/253 373/261/253
f 375/266/254 376/267/254 366/252/254
f 375/266/255 378/269/255 377/268/255
f 375/266/256 373/261/256 378/269/256
f 379/270/257 377/268/257 378/269/257
f 379/270/258 380/271/258 377/268/258
f 380/271/259 379/270/259 381/272/259
f 382/264/260 324/148/260 383/273/260
f 384/274/261 324/148/261 322/146/261
f 384/274/262 383/273/262 324/148/262
f 365/251/263 385/275/263 72/66/263
f 365/251/264 376/267/264 385/275/264
f 376/267/265 365/251/265 366/252/265
f 67/61/266 75/69/266 66/60/266
f 67/61/267 77/71/267 75/69/267
f 353/224/268 98/162/268 99/238/268
f 353/224/269 332/160/269 98/162/269
f 353/224/270 363/244/270 352/223/270
f 353/224/271 99/238/271 363/244/271
f 357/230/272 369/255/272 367/253/272
f 357/230/273 358/231/273 369/255/273
f 68/62/274 367/253/274 369/255/274
f 369/255/275 69/63/275 68/62/275
f 385/275/276 70/64/276 72/66/276
f 385/275/277 322/146/277 70/64/277
f 385/275/278 384/274/278 322/146/278
f 44/38/279 72/66/279 70/64/279
f 44/38/280 71/65/280 72/66/280
f 45/39/281 71/65/281 44/38/281
f 45/39/281 74/68/281 71/65/281
f 67/61/282 332/160/282 77/71/282
f 67/61/283 98/162/283 332/160/283
f 368/254/284 66/60/284 75/69/284
f 368/254/285 358/231/285 66/60/285
f 69/63/286 370/256/286 79/141/286
f 69/63/287 369/255/287 370/256/287
f 78/138/288 69/63/288 79/141/288
f 78/138/289 9/7/289 69/63/289
f 373/261/290 10/8/290 378/269/290
f 373/261/291 68/62/291 10/8/291
f 11/9/3 378/269/3 10/8/3
f 11/9/292 379/270/292 378/269/292
f 379/270/293 7/229/293 381/272/293
f 379/270/294 11/9/294 7/229/294
f 382/276/295 7/229/295 8/228/295
f 382/276/296 381/272/296 7/229/296
f 75/69/297 354/225/297 368/254/297
f 75/69/298 76/70/298 354/225/298
f 368/254/299 354/225/299 370/256/299
f 11/9/300 78/138/300 80/164/300
f 11/9/301 9/7/301 78/138/301
f 81/165/302 11/9/302 80/164/302
f 81/165/303 7/229/303 11/9/303
f 15/277/304 2/2/304 110/278/304
f 15/277/305 1/1/305 2/2/305
f 338/279/306 2/2/306 350/221/306
f 338/279/307 110/278/307 2/2/307
f 52/280/308 338/279/308 350/221/308
f 51/281/309 350/221/309 41/35/309
f 51/281/310 52/280/310 350/221/310
f 42/36/311 51/281/311 41/35/311
f 42/36/312 106/159/312 51/281/312
f 386/282/313 356/227/313 40/34/313
f 386/282/314 355/226/314 356/227/314
f 371/257/315 386/282/315 372/260/315
f 371/257/316 355/226/316 386/282/316
f 372/260/317 349/220/317 3/3/317
f 386/282/318 349/220/318 372/260/318
f 349/220/319 386/282/319 40/34/319
f 15/277/42 359/232/42 1/1/42
f 15/277/42 16/167/42 359/232/42
f 359/232/320 12/10/320 360/233/320
f 359/232/321 16/167/321 12/10/321
f 360/233/43 13/11/43 53/234/43
f 360/233/322 12/10/322 13/11/322
f 86/75/323 125/283/323 83/72/323
f 86/75/324 126/284/324 125/283/324
f 19/13/325 89/80/325 17/78/325
f 19/13/326 90/81/326 89/80/326
f 88/77/327 90/81/327 20/14/327
f 88/77/328 92/83/328 90/81/328
f 90/81/329 91/82/329 89/80/329
f 90/81/330 92/83/330 91/82/330
f 89/80/331 84/73/331 18/79/331
f 89/80/332 91/82/332 84/73/332
f 92/83/333 83/72/333 91/82/333
f 92/83/334 86/75/334 83/72/334
f 100/262/335 54/46/335 101/142/335
f 100/262/336 53/45/336 54/46/336
f 323/147/337 96/88/337 97/89/337
f 323/147/338 363/244/338 362/243/338
f 99/238/339 362/243/339 363/244/339
f 47/158/340 94/85/340 46/236/340
f 47/158/341 93/84/341 94/85/341
f 46/236/342 387/285/342 361/240/342
f 46/236/343 94/85/343 387/285/343
f 321/145/344 361/240/344 387/285/344
f 321/145/345 315/136/345 361/240/345
f 101/142/346 315/136/346 321/145/346
f 101/142/347 54/46/347 315/136/347
f 351/222/348 94/85/348 95/86/348
f 351/222/349 387/285/349 94/85/349
f 321/145/350 387/285/350 351/222/350
f 102/90/351 48/40/351 103/91/351
f 102/90/352 59/53/352 48/40/352
f 34/30/353 341/181/353 33/29/353
f 34/30/354 343/286/354 341/181/354
f 49/41/355 32/28/355 33/29/355
f 49/41/356 364/249/356 32/28/356
f 57/51/357 364/249/357 49/41/357
f 57/51/358 342/248/358 364/249/358
f 104/287/359 57/51/359 58/52/359
f 104/287/360 342/248/360 57/51/360
f 58/52/361 23/19/361 316/245/361
f 58/52/362 102/90/362 23/19/362
f 23/19/363 103/91/363 28/24/363
f 23/19/364 102/90/364 103/91/364
f 28/24/148 33/29/148 341/181/148
f 28/24/365 103/91/365 33/29/365
f 26/22/366 108/97/366 107/96/366
f 108/97/367 51/43/367 105/94/367
f 108/97/368 50/42/368 51/43/368
f 26/22/369 50/42/369 108/97/369
f 26/22/370 309/129/370 50/42/370
f 122/288/371 26/22/371 109/98/371
f 122/288/372 309/129/372 26/22/372
f 110/176/373 307/127/373 56/48/373
f 56/48/374 308/128/374 310/131/374
f 56/48/375 307/127/375 308/128/375
f 310/131/376 35/241/376 340/179/376
f 310/131/377 308/128/377 35/241/377
f 36/289/378 340/179/378 35/241/378
f 36/289/379 388/290/379 340/179/379
f 29/291/380 115/202/380 114/192/380
f 29/291/381 131/106/381 115/202/381
f 121/99/382 29/291/382 114/192/382
f 121/99/383 151/292/383 29/291/383
f 38/293/384 121/99/384 336/170/384
f 38/293/385 151/292/385 121/99/385
f 117/194/386 38/293/386 336/170/386
f 117/194/387 137/294/387 38/293/387
f 116/199/388 137/294/388 117/194/388
f 116/199/389 134/110/389 137/294/389
f 119/200/43 134/110/43 116/199/43
f 119/200/43 133/109/43 134/110/43
f 136/295/390 119/200/390 118/196/390
f 136/295/391 133/109/391 119/200/391
f 120/104/392 136/295/392 118/196/392
f 120/104/393 123/296/393 136/295/393
f 124/297/40 120/104/40 85/102/40
f 124/297/394 123/296/394 120/104/394
f 36/209/42 112/203/42 388/298/42
f 36/209/42 115/202/42 112/203/42
f 340/299/395 112/203/395 113/189/395
f 340/299/396 388/298/396 112/203/396
f 340/299/397 111/105/397 339/300/397
f 340/299/398 113/189/398 111/105/398
f 88/77/399 339/300/399 111/105/399
f 88/77/122 20/14/122 339/300/122
f 83/72/25 124/301/25 85/74/25
f 83/72/400 125/283/400 124/301/400
f 127/175/26 86/75/26 87/76/26
f 127/175/401 126/284/401 86/75/401
f 140/302/402 133/109/402 136/295/402
f 140/302/403 135/111/403 133/109/403
f 123/296/404 140/302/404 136/295/404
f 123/296/405 60/303/405 140/302/405
f 62/304/406 123/296/406 124/297/406
f 62/304/407 60/303/407 123/296/407
f 125/283/408 62/305/408 124/301/408
f 125/283/409 61/306/409 62/305/409
f 126/284/410 61/306/410 125/283/410
f 126/284/411 4/307/411 61/306/411
f 6/308/412 126/284/412 127/175/412
f 6/308/413 4/307/413 126/284/413
f 5/309/414 127/175/414 128/174/414
f 5/309/122 6/308/122 127/175/122
f 130/190/415 5/309/415 128/174/415
f 130/190/416 147/310/416 5/309/416
f 129/107/417 147/310/417 130/190/417
f 129/107/418 132/108/418 147/310/418
f 138/113/419 389/311/419 345/212/419
f 138/113/420 139/114/420 389/311/420
f 137/112/421 141/312/421 139/114/421
f 137/112/422 140/204/422 141/312/422
f 139/114/423 390/313/423 389/311/423
f 139/114/424 141/312/424 390/313/424
f 140/204/425 142/115/425 141/312/425
f 140/204/426 60/54/426 142/115/426
f 141/312/427 144/117/427 390/313/427
f 141/312/428 142/115/428 144/117/428
f 145/118/429 151/124/429 38/32/429
f 145/118/430 153/126/430 151/124/430
f 153/126/431 146/119/431 391/314/431
f 153/126/432 145/118/432 146/119/432
f 344/201/433 61/55/433 63/57/433
f 344/201/2 60/54/2 61/55/2
f 344/201/434 374/265/434 346/315/434
f 344/201/435 63/57/435 374/265/435
f 147/120/436 30/26/436 148/122/436
f 147/120/437 29/25/437 30/26/437
f 314/135/438 148/122/438 30/26/438
f 314/135/439 392/316/439 148/122/439
f 392/316/440 149/121/440 148/122/440
f 392/316/441 348/218/441 149/121/441
f 152/125/442 391/314/442 347/317/442
f 152/125/443 150/123/443 391/314/443
f 150/123/444 153/126/444 391/314/444
f 393/127/445 395/129/445 394/128/445
f 393/127/446 203/42/446 395/129/446
f 212/53/447 202/41/447 201/40/447
f 212/53/448 210/51/448 202/41/448
f 174/130/449 209/48/449 396/131/449
f 174/130/450 169/50/450 209/48/450
f 296/116/451 397/132/451 297/117/451
f 296/116/452 398/133/452 397/132/452
f 399/134/453 183/26/453 184/27/453
f 399/134/454 400/135/454 183/26/454
f 304/124/2 184/27/2 182/25/2
f 304/124/2 305/125/2 184/27/2
f 211/93/455 401/136/455 208/47/455
f 211/93/456 402/137/456 401/136/456
f 231/138/457 404/140/457 403/139/457
f 231/138/458 232/141/458 404/140/458
f 254/318/459 406/144/459 405/143/459
f 254/318/460 407/319/460 406/144/460
f 408/320/461 249/88/461 409/321/461
f 408/320/462 410/148/462 249/88/462
f 166/149/463 208/47/463 206/45/463
f 166/149/464 257/92/464 208/47/464
f 170/150/465 175/17/465 167/18/465
f 170/150/466 411/151/466 175/17/466
f 412/152/467 414/154/467 413/153/467
f 412/152/467 415/155/467 414/154/467
f 192/33/468 416/156/468 299/119/468
f 192/33/469 190/31/469 416/156/469
f 181/24/470 260/96/470 176/19/470
f 181/24/471 179/22/471 260/96/471
f 417/157/472 195/36/472 200/158/472
f 417/157/472 259/159/472 195/36/472
f 246/84/473 230/71/473 418/160/473
f 246/84/473 419/161/473 230/71/473
f 198/39/474 220/61/474 227/68/474
f 198/39/475 251/162/475 220/61/475
f 420/163/476 234/165/476 233/164/476
f 420/163/477 421/166/477 234/165/477
f 169/167/478 167/12/478 165/10/478
f 169/50/479 170/150/479 167/18/479
f 169/50/479 174/130/479 170/150/479
f 234/165/480 253/169/480 235/168/480
f 234/165/481 421/166/481 253/169/481
f 403/139/482 233/164/482 231/138/482
f 403/139/483 420/163/483 233/164/483
f 274/99/484 180/171/484 422/170/484
f 274/99/485 262/100/485 180/171/485
f 273/104/90 171/172/90 237/103/90
f 273/104/486 423/173/486 171/172/486
f 174/15/487 172/13/487 170/78/487
f 281/174/488 240/76/488 264/105/488
f 281/174/489 280/175/489 240/76/489
f 263/176/490 203/42/490 393/127/490
f 263/176/491 424/177/491 203/42/491
f 425/178/492 396/131/492 426/179/492
f 180/180/493 181/24/493 427/181/493
f 257/182/494 175/17/494 428/183/494
f 257/182/495 166/16/495 175/17/495
f 173/184/496 396/131/496 425/185/496
f 173/184/497 174/130/497 396/131/497
f 168/49/498 263/186/498 209/48/498
f 423/187/499 170/150/499 171/188/499
f 423/187/500 411/151/500 170/150/500
f 266/189/501 281/174/501 264/105/501
f 266/189/502 283/190/502 281/174/502
f 188/191/503 274/99/503 267/192/503
f 188/191/504 275/101/504 274/99/504
f 427/193/505 422/170/505 180/171/505
f 427/193/506 270/194/506 422/170/506
f 185/195/507 273/104/507 271/196/507
f 185/195/508 423/173/508 273/104/508
f 187/197/42 269/199/42 429/198/42
f 187/197/42 272/200/42 269/199/42
f 213/54/509 398/133/509 296/116/509
f 213/54/2 430/201/2 398/133/2
f 291/113/2 191/32/2 290/112/2
f 291/113/2 190/31/2 191/32/2
f 268/202/43 282/107/43 265/203/43
f 268/202/43 284/106/43 282/107/43
f 302/121/2 158/5/2 300/120/2
f 302/121/2 415/155/2 158/5/2
f 427/193/510 269/199/510 270/194/510
f 427/193/511 429/198/511 269/199/511
f 290/112/512 288/205/512 293/204/512
f 290/112/512 287/206/512 288/205/512
f 271/196/513 187/197/513 185/195/513
f 271/196/514 272/200/514 187/197/514
f 266/189/515 282/107/515 283/190/515
f 266/189/516 265/203/516 282/107/516
f 300/120/517 284/207/517 182/25/517
f 300/120/517 285/208/517 284/207/517
f 267/192/518 189/209/518 188/191/518
f 267/192/519 268/202/519 189/209/519
f 291/113/178 416/211/178 190/210/178
f 291/113/178 431/212/178 416/211/178
f 430/213/177 397/132/177 398/133/177
f 430/213/177 432/214/177 397/132/177
f 399/134/176 305/216/176 433/215/176
f 399/134/176 184/27/176 305/216/176
f 414/217/175 302/121/175 434/218/175
f 414/217/175 415/219/175 302/121/175
f 194/35/520 435/220/520 193/34/520
f 194/35/521 436/322/521 435/220/521
f 437/222/522 439/224/522 438/223/522
f 437/222/523 248/86/523 439/224/523
f 229/70/524 441/226/524 440/225/524
f 229/70/525 442/227/525 441/226/525
f 162/7/526 163/8/526 221/62/526
f 161/228/527 234/165/527 235/168/527
f 161/228/528 160/229/528 234/165/528
f 409/321/529 405/143/529 406/144/529
f 409/321/530 250/89/530 405/143/530
f 443/230/531 219/60/531 444/231/531
f 443/230/532 218/59/532 219/60/532
f 403/139/533 156/3/533 154/1/533
f 403/139/534 404/140/534 156/3/534
f 445/232/43 403/139/43 154/1/43
f 445/232/43 420/163/43 403/139/43
f 421/166/535 445/232/535 446/233/535
f 421/166/535 420/163/535 445/232/535
f 253/169/42 446/233/42 206/234/42
f 253/169/42 421/166/42 446/233/42
f 401/136/536 207/46/536 208/47/536
f 419/161/537 200/158/537 195/36/537
f 419/161/537 246/84/537 200/158/537
f 178/235/538 200/158/538 199/236/538
f 178/235/539 417/157/539 200/158/539
f 258/94/540 417/237/540 178/21/540
f 258/94/541 259/95/541 417/237/541
f 248/86/542 418/160/542 439/224/542
f 248/86/543 246/84/543 418/160/543
f 229/70/544 419/161/544 442/227/544
f 229/70/545 230/71/545 419/161/545
f 227/68/546 218/59/546 226/67/546
f 227/68/547 220/61/547 218/59/547
f 198/39/548 252/323/548 251/162/548
f 198/39/549 196/37/549 252/323/549
f 195/36/550 442/227/550 419/161/550
f 195/36/551 193/34/551 442/227/551
f 178/235/552 447/240/552 177/239/552
f 178/235/553 199/236/553 447/240/553
f 394/128/554 395/129/554 188/241/554
f 436/322/555 448/324/555 435/220/555
f 205/242/556 203/42/556 424/177/556
f 408/320/557 409/321/557 449/243/557
f 409/321/558 438/223/558 450/244/558
f 409/321/559 406/144/559 438/223/559
f 402/137/560 447/240/560 401/136/560
f 402/137/561 177/239/561 447/240/561
f 402/245/562 176/19/562 177/246/562
f 175/247/563 451/249/563 428/248/563
f 175/247/564 411/250/564 451/249/564
f 452/251/565 454/253/565 453/252/565
f 452/251/566 443/230/566 454/253/566
f 455/254/567 456/255/567 444/231/567
f 455/254/568 457/256/568 456/255/568
f 440/225/569 458/257/569 457/256/569
f 440/225/570 441/226/570 458/257/570
f 406/144/571 437/222/571 438/223/571
f 406/144/572 407/319/572 437/222/572
f 275/258/573 188/241/573 395/129/573
f 423/259/574 451/249/574 411/250/574
f 423/259/575 185/28/575 451/249/575
f 176/19/576 258/94/576 178/21/576
f 176/19/577 260/96/577 258/94/577
f 156/3/578 448/324/578 155/2/578
f 156/3/579 435/220/579 448/324/579
f 458/257/580 156/3/580 404/140/580
f 458/257/581 459/260/581 156/3/581
f 458/257/582 232/141/582 457/256/582
f 458/257/583 404/140/583 232/141/583
f 454/253/584 460/261/584 453/252/584
f 454/253/585 221/62/585 460/261/585
f 405/143/586 253/262/586 254/318/586
f 405/143/587 235/263/587 253/262/587
f 161/87/588 405/143/588 250/89/588
f 161/87/589 235/263/589 405/143/589
f 377/264/590 249/88/590 410/148/590
f 377/264/591 161/87/591 249/88/591
f 214/55/2 412/152/2 217/58/2
f 214/55/2 157/4/2 412/152/2
f 217/58/592 413/153/592 461/265/592
f 217/58/593 412/152/593 413/153/593
f 216/57/594 217/58/594 461/265/594
f 415/155/2 157/4/2 158/5/2
f 415/155/2 412/152/2 157/4/2
f 383/266/595 453/252/595 460/261/595
f 383/266/596 384/325/596 453/252/596
f 383/266/597 462/269/597 382/268/597
f 383/266/598 460/261/598 462/269/598
f 463/270/599 382/268/599 462/269/599
f 463/270/600 381/271/600 382/268/600
f 381/271/601 463/270/601 380/272/601
f 377/264/602 410/148/602 375/273/602
f 376/326/603 410/148/603 408/320/603
f 376/326/604 375/273/604 410/148/604
f 452/251/605 385/327/605 225/66/605
f 452/251/606 384/325/606 385/327/606
f 384/325/607 452/251/607 453/252/607
f 220/61/608 228/69/608 219/60/608
f 220/61/609 230/71/609 228/69/609
f 439/224/610 251/162/610 252/323/610
f 439/224/611 418/160/611 251/162/611
f 439/224/612 450/244/612 438/223/612
f 439/224/613 252/323/613 450/244/613
f 443/230/614 456/255/614 454/253/614
f 443/230/615 444/231/615 456/255/615
f 221/62/616 454/253/616 456/255/616
f 456/255/617 222/63/617 221/62/617
f 385/327/618 223/64/618 225/66/618
f 385/327/619 408/320/619 223/64/619
f 385/327/620 376/326/620 408/320/620
f 197/38/621 225/66/621 223/64/621
f 197/38/622 224/65/622 225/66/622
f 198/39/623 224/65/623 197/38/623
f 198/39/623 227/68/623 224/65/623
f 220/61/624 418/160/624 230/71/624
f 220/61/625 251/162/625 418/160/625
f 455/254/626 219/60/626 228/69/626
f 455/254/627 444/231/627 219/60/627
f 222/63/628 457/256/628 232/141/628
f 222/63/629 456/255/629 457/256/629
f 231/138/630 222/63/630 232/141/630
f 231/138/631 162/7/631 222/63/631
f 460/261/632 163/8/632 462/269/632
f 460/261/633 221/62/633 163/8/633
f 164/9/53 462/269/53 163/8/53
f 164/9/634 463/270/634 462/269/634
f 463/270/635 160/229/635 380/272/635
f 463/270/636 164/9/636 160/229/636
f 377/276/637 160/229/637 161/228/637
f 377/276/638 380/272/638 160/229/638
f 228/69/639 440/225/639 455/254/639
f 228/69/640 229/70/640 440/225/640
f 455/254/641 440/225/641 457/256/641
f 164/9/642 231/138/642 233/164/642
f 164/9/643 162/7/643 231/138/643
f 234/165/644 164/9/644 233/164/644
f 234/165/645 160/229/645 164/9/645
f 168/277/646 155/2/646 263/278/646
f 168/277/647 154/1/647 155/2/647
f 424/279/648 155/2/648 448/324/648
f 424/279/649 263/278/649 155/2/649
f 205/280/650 448/324/650 436/322/650
f 205/280/651 424/279/651 448/324/651
f 204/281/652 436/322/652 194/35/652
f 204/281/653 205/280/653 436/322/653
f 195/36/654 204/281/654 194/35/654
f 195/36/655 259/159/655 204/281/655
f 464/282/656 442/227/656 193/34/656
f 464/282/657 441/226/657 442/227/657
f 458/257/658 464/282/658 459/260/658
f 458/257/659 441/226/659 464/282/659
f 459/260/660 435/220/660 156/3/660
f 464/282/661 435/220/661 459/260/661
f 435/220/662 464/282/662 193/34/662
f 168/277/43 445/232/43 154/1/43
f 168/277/43 169/167/43 445/232/43
f 445/232/663 165/10/663 446/233/663
f 445/232/664 169/167/664 165/10/664
f 446/233/42 166/11/42 206/234/42
f 446/233/665 165/10/665 166/11/665
f 239/75/666 278/283/666 236/72/666
f 239/75/667 279/284/667 278/283/667
f 172/13/668 242/80/668 170/78/668
f 172/13/669 243/81/669 242/80/669
f 241/77/670 243/81/670 173/14/670
f 241/77/671 245/83/671 243/81/671
f 243/81/672 244/82/672 242/80/672
f 243/81/673 245/83/673 244/82/673
f 242/80/674 237/73/674 171/79/674
f 242/80/675 244/82/675 237/73/675
f 245/83/676 236/72/676 244/82/676
f 245/83/677 239/75/677 236/72/677
f 253/262/678 207/46/678 254/318/678
f 253/262/679 206/45/679 207/46/679
f 409/321/680 249/88/680 250/89/680
f 409/321/681 450/244/681 449/243/681
f 252/323/682 449/243/682 450/244/682
f 200/158/683 247/85/683 199/236/683
f 200/158/684 246/84/684 247/85/684
f 199/236/685 465/285/685 447/240/685
f 199/236/686 247/85/686 465/285/686
f 407/319/687 447/240/687 465/285/687
f 407/319/688 401/136/688 447/240/688
f 254/318/689 401/136/689 407/319/689
f 254/318/690 207/46/690 401/136/690
f 437/222/691 247/85/691 248/86/691
f 437/222/692 465/285/692 247/85/692
f 407/319/693 465/285/693 437/222/693
f 255/90/694 201/40/694 256/91/694
f 255/90/695 212/53/695 201/40/695
f 187/30/696 427/181/696 186/29/696
f 187/30/697 429/286/697 427/181/697
f 202/41/698 185/28/698 186/29/698
f 202/41/699 451/249/699 185/28/699
f 210/51/700 451/249/700 202/41/700
f 210/51/701 428/248/701 451/249/701
f 257/287/702 210/51/702 211/52/702
f 257/287/703 428/248/703 210/51/703
f 211/52/704 176/19/704 402/245/704
f 211/52/705 255/90/705 176/19/705
f 176/19/706 256/91/706 181/24/706
f 176/19/707 255/90/707 256/91/707
f 181/24/493 186/29/493 427/181/493
f 181/24/708 256/91/708 186/29/708
f 179/22/709 261/97/709 260/96/709
f 261/97/710 204/43/710 258/94/710
f 261/97/711 203/42/711 204/43/711
f 179/22/712 203/42/712 261/97/712
f 179/22/713 395/129/713 203/42/713
f 275/288/714 179/22/714 262/98/714
f 275/288/715 395/129/715 179/22/715
f 263/176/716 393/127/716 209/48/716
f 209/48/717 394/128/717 396/131/717
f 209/48/718 393/127/718 394/128/718
f 396/131/719 188/241/719 426/179/719
f 396/131/720 394/128/720 188/241/720
f 189/289/721 426/179/721 188/241/721
f 189/289/722 466/290/722 426/179/722
f 182/291/723 268/202/723 267/192/723
f 182/291/724 284/106/724 268/202/724
f 274/99/725 182/291/725 267/192/725
f 274/99/726 304/292/726 182/291/726
f 191/293/727 274/99/727 422/170/727
f 191/293/728 304/292/728 274/99/728
f 270/194/729 191/293/729 422/170/729
f 270/194/730 290/294/730 191/293/730
f 269/199/731 290/294/731 270/194/731
f 269/199/732 287/110/732 290/294/732
f 272/200/42 287/110/42 269/199/42
f 272/200/42 286/109/42 287/110/42
f 289/295/733 272/200/733 271/196/733
f 289/295/734 286/109/734 272/200/734
f 273/104/735 289/295/735 271/196/735
f 273/104/736 276/296/736 289/295/736
f 277/297/90 273/104/90 238/102/90
f 277/297/737 276/296/737 273/104/737
f 189/209/43 265/203/43 466/298/43
f 189/209/43 268/202/43 265/203/43
f 426/299/738 265/203/738 266/189/738
f 426/299/739 466/298/739 265/203/739
f 426/299/740 264/105/740 425/300/740
f 426/299/741 266/189/741 264/105/741
f 241/77/742 425/300/742 264/105/742
f 241/77/467 173/14/467 425/300/467
f 236/72/75 277/301/75 238/74/75
f 236/72/743 278/283/743 277/301/743
f 280/175/76 239/75/76 240/76/76
f 280/175/744 279/284/744 239/75/744
f 293/302/745 286/109/745 289/295/745
f 293/302/746 288/111/746 286/109/746
f 276/296/747 293/302/747 289/295/747
f 276/296/748 213/303/748 293/302/748
f 215/304/749 276/296/749 277/297/749
f 215/304/750 213/303/750 276/296/750
f 278/283/751 215/305/751 277/301/751
f 278/283/752 214/306/752 215/305/752
f 279/284/753 214/306/753 278/283/753
f 279/284/754 157/307/754 214/306/754
f 159/308/755 279/284/755 280/175/755
f 159/308/756 157/307/756 279/284/756
f 158/309/757 280/175/757 281/174/757
f 158/309/467 159/308/467 280/175/467
f 283/190/758 158/309/758 281/174/758
f 283/190/759 300/310/759 158/309/759
f 282/107/760 300/310/760 283/190/760
f 282/107/761 285/108/761 300/310/761
f 291/113/762 467/311/762 431/212/762
f 291/113/763 292/114/763 467/311/763
f 290/112/764 294/312/764 292/114/764
f 290/112/765 293/204/765 294/312/765
f 292/114/766 468/313/766 467/311/766
f 292/114/767 294/312/767 468/313/767
f 293/204/768 295/115/768 294/312/768
f 293/204/769 213/54/769 295/115/769
f 294/312/770 297/117/770 468/313/770
f 294/312/771 295/115/771 297/117/771
f 298/118/772 304/124/772 191/32/772
f 298/118/773 306/126/773 304/124/773
f 306/126/774 299/119/774 469/314/774
f 306/126/775 298/118/775 299/119/775
f 430/201/776 214/55/776 216/57/776
f 430/201/2 213/54/2 214/55/2
f 430/201/777 461/265/777 432/315/777
f 430/201/778 216/57/778 461/265/778
f 300/120/779 183/26/779 301/122/779
f 300/120/780 182/25/780 183/26/780
f 400/135/781 301/122/781 183/26/781
f 400/135/782 470/316/782 301/122/782
f 470/316/783 302/121/783 301/122/783
f 470/316/784 434/218/784 302/121/784
f 305/125/785 469/314/785 433/317/785
f 305/125/786 303/123/786 469/314/786
f 303/123/787 306/126/787 469/314/787
f 365/251/788 72/66/788 73/67/788
f 73/67/789 65/59/789 365/251/789
f 65/59/790 357/230/790 365/251/790
f 70/64/791 322/146/791 362/243/791
f 362/243/792 43/37/792 70/64/792
f 99/238/793 43/37/793 362/243/793
f 218/59/794 443/230/794 452/251/794
f 452/251/795 226/67/795 218/59/795
f 452/251/796 225/66/796 226/67/796
f 449/243/797 252/323/797 196/37/797
f 196/37/798 223/64/798 408/320/798
f 408/320/799 449/243/799 196/37/799
