# Blender 4.5.3 LTS
# www.blender.org
mtllib Parabrisas.mtl
o Parabrisas
v -0.619112 1.363228 -0.448640
v -0.304718 1.404526 -0.459053
v -0.742373 1.080656 -0.996952
v -0.661103 1.296134 -0.591549
v -0.709416 1.184033 -0.806636
v -0.584166 1.379118 -0.427006
v -0.741860 1.014422 -1.128556
v -0.686703 1.003075 -1.156835
v -0.438451 1.000580 -1.241402
v -0.160386 1.000752 -1.283013
v -0.578233 1.000342 -1.203318
v -0.300674 1.000716 -1.266781
v -0.167743 1.409992 -0.465835
v -0.420988 1.397048 -0.448190
v -0.514755 1.388245 -0.436543
v -0.166077 1.333340 -0.658865
v -0.163913 1.215260 -0.901120
v -0.161934 1.098919 -1.114782
v -0.303803 1.328240 -0.650146
v -0.302613 1.211945 -0.889578
v -0.301525 1.097465 -1.100608
v -0.424943 1.321049 -0.635546
v -0.430096 1.207140 -0.870958
v -0.434841 1.095047 -1.078765
v -0.529568 1.313411 -0.618300
v -0.548370 1.201404 -0.847433
v -0.565600 1.090935 -1.050657
v -0.611618 1.304833 -0.602390
v -0.643476 1.193450 -0.824232
v -0.670390 1.086075 -1.020321
v -0.750188 1.028132 -1.100946
v -0.160699 1.020983 -1.248800
v -0.300846 1.020662 -1.232984
v -0.437729 1.020033 -1.208397
v -0.575740 1.018897 -1.172799
v -0.683711 1.019986 -1.130317
v 0.619112 1.363228 -0.448640
v 0.000000 1.412511 -0.468823
v 0.304718 1.404526 -0.459053
v 0.742373 1.080656 -0.996952
v 0.661103 1.296134 -0.591549
v 0.709416 1.184033 -0.806636
v 0.584166 1.379118 -0.427006
v 0.741860 1.014422 -1.128556
v 0.686703 1.003075 -1.156835
v 0.000000 1.000724 -1.290710
v 0.438451 1.000580 -1.241402
v 0.160386 1.000752 -1.283013
v 0.578233 1.000342 -1.203318
v 0.300674 1.000716 -1.266781
v 0.167743 1.409992 -0.465835
v 0.420988 1.397048 -0.448190
v 0.514755 1.388245 -0.436543
v 0.000000 1.336634 -0.663509
v 0.000000 1.217520 -0.907026
v 0.000000 1.099896 -1.121693
v 0.166077 1.333340 -0.658865
v 0.163913 1.215260 -0.901120
v 0.161934 1.098919 -1.114782
v 0.303803 1.328240 -0.650146
v 0.302613 1.211945 -0.889578
v 0.301525 1.097465 -1.100608
v 0.424943 1.321049 -0.635546
v 0.430096 1.207140 -0.870958
v 0.434841 1.095047 -1.078765
v 0.529568 1.313411 -0.618300
v 0.548370 1.201404 -0.847433
v 0.565600 1.090935 -1.050657
v 0.611618 1.304833 -0.602390
v 0.643476 1.193450 -0.824232
v 0.670390 1.086074 -1.020321
v 0.750188 1.028132 -1.100946
v 0.000000 1.021158 -1.256337
v 0.160699 1.020983 -1.248800
v 0.300846 1.020662 -1.232984
v 0.437729 1.020033 -1.208397
v 0.575740 1.018897 -1.172799
v 0.683711 1.019985 -1.130317
v -0.603623 1.374721 -0.427608
v -0.729006 1.127764 -0.909907
v -0.638266 1.337017 -0.505514
v -0.685791 1.242791 -0.696278
v -0.721235 1.008485 -1.139924
v 0.000000 1.378782 -0.560877
v 0.000000 1.280661 -0.782821
v 0.000000 1.155818 -1.021939
v -0.166962 1.375703 -0.557027
v -0.165028 1.277723 -0.777502
v -0.162858 1.154242 -1.015498
v -0.304289 1.370283 -0.549366
v -0.303226 1.273395 -0.767436
v -0.302033 1.151920 -1.002554
v -0.422843 1.362740 -0.536684
v -0.427436 1.267236 -0.750783
v -0.432628 1.148371 -0.982254
v -0.521755 1.354424 -0.522381
v -0.538691 1.260557 -0.730221
v -0.557597 1.143336 -0.956619
v -0.597395 1.345603 -0.509805
v -0.627385 1.252171 -0.710569
v -0.658280 1.136425 -0.930376
v -0.639126 1.300470 -0.596505
v -0.678810 1.188833 -0.814903
v -0.708996 1.083411 -1.007909
v -0.749534 1.019143 -1.119570
v 0.000000 1.006041 -1.281740
v -0.160468 1.006016 -1.274085
v -0.300719 1.005906 -1.257961
v -0.438262 1.005641 -1.232789
v -0.577582 1.005202 -1.195354
v -0.685922 1.007605 -1.149915
v -0.748491 1.047665 -1.060971
v 0.000000 1.053362 -1.201969
v -0.161196 1.052865 -1.194683
v -0.301119 1.052093 -1.179527
v -0.436579 1.050702 -1.156148
v -0.571750 1.048111 -1.124202
v -0.678778 1.046365 -1.087607
v -0.720305 1.023413 -1.114194
v 0.603623 1.374721 -0.427608
v 0.729006 1.127764 -0.909907
v 0.638266 1.337017 -0.505514
v 0.685791 1.242791 -0.696278
v 0.721235 1.008485 -1.139924
v 0.166962 1.375703 -0.557027
v 0.165028 1.277723 -0.777502
v 0.162858 1.154242 -1.015498
v 0.304289 1.370283 -0.549366
v 0.303226 1.273395 -0.767436
v 0.302033 1.151920 -1.002554
v 0.422843 1.362740 -0.536684
v 0.427436 1.267236 -0.750783
v 0.432628 1.148371 -0.982254
v 0.521755 1.354424 -0.522381
v 0.538691 1.260557 -0.730221
v 0.557597 1.143336 -0.956619
v 0.597395 1.345603 -0.509805
v 0.627385 1.252171 -0.710569
v 0.658280 1.136425 -0.930376
v 0.639126 1.300470 -0.596505
v 0.678810 1.188833 -0.814903
v 0.708996 1.083411 -1.007909
v 0.749534 1.019143 -1.119570
v 0.160468 1.006016 -1.274085
v 0.300719 1.005906 -1.257961
v 0.438262 1.005641 -1.232789
v 0.577582 1.005202 -1.195354
v 0.685922 1.007605 -1.149915
v 0.748491 1.047665 -1.060971
v 0.161196 1.052865 -1.194683
v 0.301119 1.052093 -1.179527
v 0.436579 1.050702 -1.156148
v 0.571750 1.048111 -1.124202
v 0.678778 1.046365 -1.087607
v 0.720305 1.023413 -1.114194
v -0.721646 1.012590 -1.132998
v -0.620713 1.341586 -0.506102
v -0.659103 1.247535 -0.702925
v -0.696034 1.132228 -0.919571
v -0.716630 1.046739 -1.073211
v 0.721646 1.012590 -1.132998
v 0.620713 1.341586 -0.506102
v 0.659103 1.247535 -0.702926
v 0.696035 1.132228 -0.919571
v 0.716630 1.046739 -1.073211
vn -0.0384 0.9350 -0.3525
vn -0.0776 0.9261 -0.3691
vn -0.0758 0.9318 -0.3549
vn -0.0000 0.9318 -0.3630
vn -0.0437 0.9137 -0.4039
vn -0.0406 0.9291 -0.3676
vn -0.1137 0.9221 -0.3699
vn -0.1123 0.9274 -0.3567
vn -0.0804 0.9116 -0.4032
vn -0.1494 0.9189 -0.3650
vn -0.1501 0.9240 -0.3518
vn -0.1167 0.9088 -0.4007
vn -0.1808 0.9210 -0.3450
vn -0.1896 0.9145 -0.3573
vn -0.1518 0.9058 -0.3957
vn -0.1013 0.8677 -0.4866
vn -0.0425 0.8863 -0.4612
vn -0.0840 0.8864 -0.4552
vn -0.1619 0.8470 -0.5063
vn -0.0800 0.8602 -0.5036
vn -0.1620 0.8387 -0.5199
vn -0.0959 0.8529 -0.5133
vn -0.0276 0.8735 -0.4861
vn -0.1972 0.9003 -0.3881
vn -0.2023 0.8869 -0.4153
vn -0.1553 0.8924 -0.4236
vn -0.2036 0.8779 -0.4334
vn -0.1563 0.8823 -0.4440
vn -0.2004 0.8707 -0.4491
vn -0.1548 0.8732 -0.4622
vn -0.1903 0.8630 -0.4681
vn -0.1140 0.8666 -0.4858
vn -0.1584 0.8551 -0.4936
vn -0.1548 0.8637 -0.4796
vn -0.1161 0.8843 -0.4522
vn -0.1150 0.8601 -0.4971
vn -0.1625 0.8502 -0.5007
vn -0.1145 0.8750 -0.4704
vn -0.0773 0.8679 -0.4908
vn -0.1175 0.8951 -0.4302
vn -0.0793 0.8854 -0.4580
vn -0.0771 0.8618 -0.5014
vn -0.1158 0.8569 -0.5022
vn -0.0780 0.8759 -0.4761
vn -0.0428 0.8689 -0.4931
vn -0.0807 0.8967 -0.4352
vn -0.0442 0.8864 -0.4609
vn -0.0425 0.8630 -0.5035
vn -0.0770 0.8588 -0.5065
vn -0.0434 0.8769 -0.4788
vn -0.0000 0.8599 -0.5104
vn -0.0418 0.8600 -0.5085
vn -0.0422 0.8601 -0.5084
vn -0.0448 0.8981 -0.4376
vn -0.0000 0.8598 -0.5106
vn -0.0408 0.8605 -0.5078
vn -0.0000 0.8864 -0.4628
vn -0.0000 0.9153 -0.4027
vn -0.0000 0.8768 -0.4808
vn -0.0000 0.8986 -0.4387
vn -0.2221 0.9145 -0.3382
vn -0.2298 0.9082 -0.3499
vn -0.2478 0.9034 -0.3498
vn -0.2028 0.9182 -0.3403
vn -0.2418 0.8935 -0.3785
vn -0.2596 0.8899 -0.3751
vn -0.2424 0.8813 -0.4057
vn -0.2557 0.8792 -0.4021
vn -0.2389 0.8737 -0.4237
vn -0.2502 0.8726 -0.4196
vn -0.2446 0.8687 -0.4308
vn -0.2324 0.8689 -0.4370
vn -0.2084 0.8680 -0.4507
vn -0.2192 0.8717 -0.4383
vn -0.1651 0.8483 -0.5031
vn -0.1720 0.8333 -0.5253
vn -0.1744 0.8545 -0.4893
vn -0.0000 0.8689 -0.4951
vn -0.0000 0.8629 -0.5055
vn -0.0766 0.8587 -0.5067
vn -0.0749 0.8593 -0.5060
vn -0.1132 0.8577 -0.5016
vn 0.0437 0.9137 -0.4039
vn 0.0406 0.9291 -0.3676
vn -0.1620 0.8483 -0.5042
vn -0.1579 0.8801 -0.4478
vn -0.1560 0.8696 -0.4685
vn -0.0000 0.9380 -0.3467
vn 0.0384 0.9350 -0.3525
vn 0.0804 0.9116 -0.4032
vn 0.0776 0.9261 -0.3691
vn 0.0758 0.9318 -0.3549
vn 0.1167 0.9088 -0.4007
vn 0.1137 0.9221 -0.3699
vn 0.1123 0.9274 -0.3567
vn 0.1518 0.9058 -0.3957
vn 0.1494 0.9189 -0.3650
vn 0.1501 0.9240 -0.3518
vn 0.1972 0.9003 -0.3881
vn 0.0425 0.8863 -0.4612
vn 0.1013 0.8677 -0.4866
vn 0.0840 0.8864 -0.4552
vn 0.0276 0.8735 -0.4861
vn 0.0800 0.8602 -0.5036
vn 0.0959 0.8529 -0.5132
vn 0.1620 0.8387 -0.5199
vn 0.1619 0.8470 -0.5063
vn 0.1553 0.8924 -0.4236
vn 0.2036 0.8779 -0.4334
vn 0.1563 0.8823 -0.4440
vn 0.1808 0.9210 -0.3450
vn 0.1896 0.9145 -0.3573
vn 0.1548 0.8732 -0.4622
vn 0.1903 0.8630 -0.4681
vn 0.1548 0.8637 -0.4796
vn 0.2023 0.8869 -0.4153
vn 0.1625 0.8502 -0.5007
vn 0.1150 0.8601 -0.4971
vn 0.1584 0.8551 -0.4936
vn 0.2004 0.8707 -0.4491
vn 0.1140 0.8666 -0.4858
vn 0.1145 0.8750 -0.4704
vn 0.1161 0.8843 -0.4522
vn 0.1175 0.8951 -0.4302
vn 0.1158 0.8569 -0.5022
vn 0.0771 0.8618 -0.5014
vn 0.0773 0.8679 -0.4908
vn 0.0780 0.8759 -0.4761
vn 0.0793 0.8854 -0.4580
vn 0.0807 0.8967 -0.4352
vn 0.0770 0.8588 -0.5065
vn 0.0425 0.8630 -0.5035
vn 0.0428 0.8689 -0.4931
vn 0.0434 0.8769 -0.4788
vn 0.0442 0.8864 -0.4609
vn 0.0448 0.8981 -0.4376
vn 0.0408 0.8605 -0.5078
vn -0.0000 0.8602 -0.5099
vn 0.0418 0.8600 -0.5085
vn 0.0422 0.8601 -0.5084
vn 0.1651 0.8483 -0.5031
vn 0.1720 0.8333 -0.5253
vn 0.1620 0.8483 -0.5042
vn 0.2221 0.9145 -0.3382
vn 0.2298 0.9082 -0.3499
vn 0.2028 0.9182 -0.3403
vn 0.2478 0.9034 -0.3498
vn 0.2418 0.8935 -0.3785
vn 0.2596 0.8899 -0.3751
vn 0.2424 0.8813 -0.4057
vn 0.2557 0.8792 -0.4021
vn 0.2389 0.8737 -0.4237
vn 0.2446 0.8687 -0.4308
vn 0.2502 0.8726 -0.4196
vn 0.2192 0.8717 -0.4383
vn 0.2324 0.8689 -0.4370
vn 0.2083 0.8680 -0.4507
vn 0.1744 0.8545 -0.4893
vn 0.0749 0.8593 -0.5060
vn 0.0766 0.8587 -0.5067
vn 0.1132 0.8577 -0.5016
vn 0.1579 0.8801 -0.4478
vn 0.1560 0.8696 -0.4685
vt 0.618338 0.941115
vt 0.705935 0.837669
vt 0.704295 0.930626
vt 0.512349 0.861091
vt 0.618796 0.737684
vt 0.618857 0.847661
vt 0.779961 0.831341
vt 0.776256 0.923142
vt 0.707110 0.728567
vt 0.840676 0.827284
vt 0.833253 0.917016
vt 0.783545 0.723882
vt 0.874605 0.911107
vt 0.886141 0.823518
vt 0.848458 0.722365
vt 0.976071 0.075282
vt 0.995856 0.064347
vt 0.995694 0.087661
vt 0.952556 0.061658
vt 0.977126 0.050392
vt 0.953905 0.034875
vt 0.976864 0.041228
vt 0.990781 0.053620
vt 0.898202 0.721073
vt 0.910892 0.595053
vt 0.856670 0.593343
vt 0.923414 0.457274
vt 0.864715 0.452257
vt 0.934677 0.324421
vt 0.871847 0.315866
vt 0.943601 0.208523
vt 0.792723 0.184852
vt 0.881653 0.097249
vt 0.877594 0.194614
vt 0.789507 0.447567
vt 0.793381 0.082862
vt 0.884095 0.031716
vt 0.791471 0.308930
vt 0.704512 0.180020
vt 0.786801 0.591683
vt 0.706946 0.447280
vt 0.703097 0.075880
vt 0.793660 0.012820
vt 0.705891 0.306288
vt 0.610931 0.182363
vt 0.707423 0.594007
vt 0.615776 0.453083
vt 0.608654 0.076890
vt 0.701996 0.004152
vt 0.613414 0.310269
vt 0.497481 0.014652
vt 0.606187 -0.029931
vt 0.606982 0.004257
vt 0.617698 0.601641
vt 0.496617 -0.019669
vt 0.605909 -0.042021
vt 0.507449 0.465358
vt 0.511686 0.751015
vt 0.504626 0.321930
vt 0.509957 0.614532
vt 0.896227 0.880274
vt 0.899838 0.821234
vt 0.910068 0.816699
vt 0.886171 0.905667
vt 0.914389 0.719948
vt 0.927053 0.718608
vt 0.929707 0.594960
vt 0.945248 0.594442
vt 0.944581 0.458552
vt 0.962616 0.459248
vt 0.977180 0.329581
vt 0.957539 0.327363
vt 0.967337 0.214168
vt 0.987616 0.218931
vt 0.885197 0.001055
vt 0.954342 0.025302
vt 0.949402 0.119409
vt 0.501808 0.193482
vt 0.499294 0.087575
vt 0.701466 -0.029608
vt 0.793774 -0.020121
vt 0.701282 -0.041549
vt 0.793819 -0.031769
vt 0.404106 0.766343
vt 0.405503 0.875276
vt 0.885582 -0.009813
vt 0.993292 0.137881
vt 0.973201 0.129180
vt 0.512396 0.954402
vt 0.406347 0.967822
vt 0.315589 0.780791
vt 0.318214 0.887833
vt 0.320232 0.979005
vt 0.238538 0.796469
vt 0.243571 0.900675
vt 0.247766 0.989686
vt 0.172962 0.812155
vt 0.182078 0.912326
vt 0.189929 0.997993
vt 0.122227 0.824070
vt 0.004144 0.219214
vt 0.023171 0.223816
vt 0.004961 0.241535
vt 0.008441 0.207435
vt 0.021069 0.200278
vt 0.020869 0.191425
vt 0.042936 0.178328
vt 0.045647 0.203595
vt 0.161839 0.688955
vt 0.090126 0.575797
vt 0.149668 0.554312
vt 0.147509 1.002648
vt 0.135589 0.920374
vt 0.137832 0.424260
vt 0.061238 0.341938
vt 0.127322 0.308712
vt 0.106645 0.705453
vt 0.113445 0.153472
vt 0.206526 0.174788
vt 0.118989 0.215927
vt 0.074483 0.450888
vt 0.211743 0.273688
vt 0.218065 0.394001
vt 0.225042 0.528449
vt 0.232156 0.668234
vt 0.202937 0.106868
vt 0.296079 0.139952
vt 0.299461 0.242229
vt 0.303441 0.366222
vt 0.307715 0.504665
vt 0.311957 0.648715
vt 0.293702 0.069505
vt 0.389988 0.111423
vt 0.392636 0.215986
vt 0.395666 0.342777
vt 0.398810 0.484328
vt 0.401775 0.631550
vt 0.386888 -0.006466
vt 0.496314 -0.031806
vt 0.387202 0.005520
vt 0.388099 0.039414
vt 0.110860 0.124255
vt 0.041974 0.169292
vt 0.109945 0.113902
vt 0.125033 0.978158
vt 0.121321 0.921713
vt 0.135527 1.000283
vt 0.110488 0.919990
vt 0.105350 0.827302
vt 0.091918 0.829416
vt 0.087100 0.710548
vt 0.070743 0.714355
vt 0.068265 0.583060
vt 0.030748 0.468335
vt 0.049455 0.588880
vt 0.016732 0.365127
vt 0.051053 0.460429
vt 0.037280 0.354480
vt 0.051593 0.258047
vt 0.292183 0.024623
vt 0.292579 0.036348
vt 0.200655 0.063637
vt 0.201250 0.074928
vt 0.008675 0.289018
vt 0.028205 0.274642
s 1
usemtl Material.002
f 13/1/1 90/2/2 2/3/3
f 84/4/4 16/5/5 87/6/6
f 2/3/3 93/7/7 14/8/8
f 87/6/6 19/9/9 90/2/2
f 14/8/8 96/10/10 15/11/11
f 90/2/2 22/12/12 93/7/7
f 6/13/13 96/10/10 99/14/14
f 93/7/7 25/15/15 96/10/10
f 119/16/16 105/17/17 31/18/18
f 36/19/19 156/20/20 119/16/16
f 111/21/21 83/22/22 156/20/20
f 156/20/20 7/23/23 105/17/17
f 96/10/10 28/24/24 99/14/14
f 25/15/15 100/25/25 28/24/24
f 97/26/26 29/27/27 100/25/25
f 26/28/28 101/29/29 29/27/27
f 98/30/30 30/31/31 101/29/29
f 24/32/32 117/33/33 27/34/34
f 23/35/35 98/30/30 26/28/28
f 116/36/36 35/37/37 117/33/33
f 22/12/12 97/26/26 25/15/15
f 95/38/38 27/34/34 98/30/30
f 21/39/39 116/36/36 24/32/32
f 94/40/40 26/28/28 97/26/26
f 20/41/41 95/38/38 23/35/35
f 115/42/42 34/43/43 116/36/36
f 19/9/9 94/40/40 22/12/12
f 92/44/44 24/32/32 95/38/38
f 18/45/45 115/42/42 21/39/39
f 91/46/46 23/35/35 94/40/40
f 17/47/47 92/44/44 20/41/41
f 114/48/48 33/49/49 115/42/42
f 16/5/5 91/46/46 19/9/9
f 89/50/50 21/39/39 92/44/44
f 73/51/51 107/52/52 32/53/53
f 88/54/54 20/41/41 91/46/46
f 106/55/55 10/56/56 107/52/52
f 55/57/57 89/50/50 17/47/47
f 54/58/58 88/54/54 16/5/5
f 86/59/59 18/45/45 89/50/50
f 35/37/37 111/21/21 36/19/19
f 85/60/60 17/47/47 88/54/54
f 1/61/61 157/62/62 81/63/63
f 79/64/64 99/14/14 157/62/62
f 157/62/62 28/24/24 102/65/65
f 81/63/63 102/65/65 4/66/66
f 4/66/66 158/67/67 82/68/68
f 102/65/65 100/25/25 158/67/67
f 100/25/25 103/69/69 158/67/67
f 82/68/68 103/69/69 5/70/70
f 103/69/69 80/71/71 5/70/70
f 29/27/27 159/72/72 103/69/69
f 101/29/29 104/73/73 159/72/72
f 159/72/72 3/74/74 80/71/71
f 110/75/75 8/76/76 111/21/21
f 27/34/34 118/77/77 30/31/31
f 117/33/33 36/19/19 118/77/77
f 56/78/78 114/48/48 18/45/45
f 113/79/79 32/53/53 114/48/48
f 32/53/53 108/80/80 33/49/49
f 33/49/49 109/81/43 34/43/43
f 107/52/52 12/82/81 108/80/80
f 34/43/43 110/75/75 35/37/37
f 108/80/80 9/83/82 109/81/43
f 57/84/83 84/4/4 125/85/84
f 109/81/43 11/86/85 110/75/75
f 104/73/73 112/87/86 3/74/74
f 30/31/31 160/88/87 104/73/73
f 118/77/77 119/16/16 160/88/87
f 160/88/87 31/18/18 112/87/86
f 125/85/84 38/89/88 51/90/89
f 60/91/90 125/85/84 128/92/91
f 128/92/91 51/90/89 39/93/92
f 63/94/93 128/92/91 131/95/94
f 131/95/94 39/93/92 52/96/95
f 66/97/96 131/95/94 134/98/97
f 134/98/97 52/96/95 53/99/98
f 134/98/97 69/100/99 66/97/96
f 143/101/100 155/102/101 72/103/102
f 44/104/103 161/105/104 143/101/100
f 124/106/105 148/107/106 161/105/104
f 161/105/104 78/108/107 155/102/101
f 135/109/108 70/110/109 67/111/110
f 134/98/97 43/112/111 137/113/112
f 136/114/113 71/115/114 68/116/115
f 138/117/116 66/97/96 69/100/99
f 77/118/117 152/119/118 153/120/119
f 139/121/120 67/111/110 70/110/109
f 153/120/119 65/122/121 68/116/115
f 68/116/115 133/123/122 136/114/113
f 136/114/113 64/124/123 67/111/110
f 67/111/110 132/125/124 135/109/108
f 135/109/108 63/94/93 66/97/96
f 76/126/125 151/127/126 152/119/118
f 152/119/118 62/128/127 65/122/121
f 65/122/121 130/129/128 133/123/122
f 133/123/122 61/130/129 64/124/123
f 64/124/123 129/131/130 132/125/124
f 132/125/124 60/91/90 63/94/93
f 75/132/131 150/133/132 151/127/126
f 151/127/126 59/134/133 62/128/127
f 62/128/127 127/135/134 130/129/128
f 130/129/128 58/136/135 61/130/129
f 61/130/129 126/137/136 129/131/130
f 129/131/130 57/84/83 60/91/90
f 106/55/55 48/138/137 46/139/138
f 59/134/133 86/59/59 127/135/134
f 144/140/139 73/51/51 74/141/140
f 127/135/134 55/57/57 58/136/135
f 58/136/135 85/60/60 126/137/136
f 126/137/136 54/58/58 57/84/83
f 147/142/141 45/143/142 49/144/143
f 37/145/144 162/146/145 120/147/146
f 122/148/147 140/149/148 162/146/145
f 162/146/145 69/100/99 137/113/112
f 120/147/146 137/113/112 43/112/111
f 41/150/149 163/151/150 140/149/148
f 123/152/151 141/153/152 163/151/150
f 141/153/152 138/117/116 163/151/150
f 140/149/148 138/117/116 69/100/99
f 121/154/153 141/153/152 42/155/154
f 40/156/155 164/157/156 121/154/153
f 142/158/157 139/121/120 164/157/156
f 164/157/156 70/110/109 141/153/152
f 153/120/119 78/108/107 77/118/117
f 148/107/106 77/118/117 78/108/107
f 113/79/79 74/141/140 73/51/51
f 154/159/158 68/116/115 71/115/114
f 144/140/139 50/160/159 48/138/137
f 150/133/132 56/78/78 59/134/133
f 145/161/160 74/141/140 75/132/131
f 145/161/160 47/162/161 50/160/159
f 146/163/125 75/132/131 76/126/125
f 146/163/125 49/144/143 47/162/161
f 147/142/141 76/126/125 77/118/117
f 149/164/162 142/158/157 40/156/155
f 72/103/102 165/165/163 149/164/162
f 155/102/101 154/159/158 165/165/163
f 165/165/163 71/115/114 142/158/157
f 38/89/88 87/6/6 13/1/1
f 13/1/1 87/6/6 90/2/2
f 84/4/4 54/58/58 16/5/5
f 2/3/3 90/2/2 93/7/7
f 87/6/6 16/5/5 19/9/9
f 14/8/8 93/7/7 96/10/10
f 90/2/2 19/9/9 22/12/12
f 6/13/13 15/11/11 96/10/10
f 93/7/7 22/12/12 25/15/15
f 119/16/16 156/20/20 105/17/17
f 36/19/19 111/21/21 156/20/20
f 111/21/21 8/76/76 83/22/22
f 156/20/20 83/22/22 7/23/23
f 96/10/10 25/15/15 28/24/24
f 25/15/15 97/26/26 100/25/25
f 97/26/26 26/28/28 29/27/27
f 26/28/28 98/30/30 101/29/29
f 98/30/30 27/34/34 30/31/31
f 24/32/32 116/36/36 117/33/33
f 23/35/35 95/38/38 98/30/30
f 116/36/36 34/43/43 35/37/37
f 22/12/12 94/40/40 97/26/26
f 95/38/38 24/32/32 27/34/34
f 21/39/39 115/42/42 116/36/36
f 94/40/40 23/35/35 26/28/28
f 20/41/41 92/44/44 95/38/38
f 115/42/42 33/49/49 34/43/43
f 19/9/9 91/46/46 94/40/40
f 92/44/44 21/39/39 24/32/32
f 18/45/45 114/48/48 115/42/42
f 91/46/46 20/41/41 23/35/35
f 17/47/47 89/50/50 92/44/44
f 114/48/48 32/53/53 33/49/49
f 16/5/5 88/54/54 91/46/46
f 89/50/50 18/45/45 21/39/39
f 73/51/51 106/55/55 107/52/52
f 88/54/54 17/47/47 20/41/41
f 106/55/55 46/139/138 10/56/56
f 55/57/57 86/59/59 89/50/50
f 54/58/58 85/60/60 88/54/54
f 86/59/59 56/78/78 18/45/45
f 35/37/37 110/75/75 111/21/21
f 85/60/60 55/57/57 17/47/47
f 1/61/61 79/64/64 157/62/62
f 79/64/64 6/13/13 99/14/14
f 157/62/62 99/14/14 28/24/24
f 81/63/63 157/62/62 102/65/65
f 4/66/66 102/65/65 158/67/67
f 102/65/65 28/24/24 100/25/25
f 100/25/25 29/27/27 103/69/69
f 82/68/68 158/67/67 103/69/69
f 103/69/69 159/72/72 80/71/71
f 29/27/27 101/29/29 159/72/72
f 101/29/29 30/31/31 104/73/73
f 159/72/72 104/73/73 3/74/74
f 110/75/75 11/86/85 8/76/76
f 27/34/34 117/33/33 118/77/77
f 117/33/33 35/37/37 36/19/19
f 56/78/78 113/79/79 114/48/48
f 113/79/79 73/51/51 32/53/53
f 32/53/53 107/52/52 108/80/80
f 33/49/49 108/80/80 109/81/43
f 107/52/52 10/56/56 12/82/81
f 34/43/43 109/81/43 110/75/75
f 108/80/80 12/82/81 9/83/82
f 57/84/83 54/58/58 84/4/4
f 109/81/43 9/83/82 11/86/85
f 104/73/73 160/88/87 112/87/86
f 30/31/31 118/77/77 160/88/87
f 118/77/77 36/19/19 119/16/16
f 160/88/87 119/16/16 31/18/18
f 125/85/84 84/4/4 38/89/88
f 60/91/90 57/84/83 125/85/84
f 128/92/91 125/85/84 51/90/89
f 63/94/93 60/91/90 128/92/91
f 131/95/94 128/92/91 39/93/92
f 66/97/96 63/94/93 131/95/94
f 134/98/97 131/95/94 52/96/95
f 134/98/97 137/113/112 69/100/99
f 143/101/100 161/105/104 155/102/101
f 44/104/103 124/106/105 161/105/104
f 124/106/105 45/143/142 148/107/106
f 161/105/104 148/107/106 78/108/107
f 135/109/108 138/117/116 70/110/109
f 134/98/97 53/99/98 43/112/111
f 136/114/113 139/121/120 71/115/114
f 138/117/116 135/109/108 66/97/96
f 77/118/117 76/126/125 152/119/118
f 139/121/120 136/114/113 67/111/110
f 153/120/119 152/119/118 65/122/121
f 68/116/115 65/122/121 133/123/122
f 136/114/113 133/123/122 64/124/123
f 67/111/110 64/124/123 132/125/124
f 135/109/108 132/125/124 63/94/93
f 76/126/125 75/132/131 151/127/126
f 152/119/118 151/127/126 62/128/127
f 65/122/121 62/128/127 130/129/128
f 133/123/122 130/129/128 61/130/129
f 64/124/123 61/130/129 129/131/130
f 132/125/124 129/131/130 60/91/90
f 75/132/131 74/141/140 150/133/132
f 151/127/126 150/133/132 59/134/133
f 62/128/127 59/134/133 127/135/134
f 130/129/128 127/135/134 58/136/135
f 61/130/129 58/136/135 126/137/136
f 129/131/130 126/137/136 57/84/83
f 106/55/55 144/140/139 48/138/137
f 59/134/133 56/78/78 86/59/59
f 144/140/139 106/55/55 73/51/51
f 127/135/134 86/59/59 55/57/57
f 58/136/135 55/57/57 85/60/60
f 126/137/136 85/60/60 54/58/58
f 147/142/141 148/107/106 45/143/142
f 37/145/144 122/148/147 162/146/145
f 122/148/147 41/150/149 140/149/148
f 162/146/145 140/149/148 69/100/99
f 120/147/146 162/146/145 137/113/112
f 41/150/149 123/152/151 163/151/150
f 123/152/151 42/155/154 141/153/152
f 141/153/152 70/110/109 138/117/116
f 140/149/148 163/151/150 138/117/116
f 121/154/153 164/157/156 141/153/152
f 40/156/155 142/158/157 164/157/156
f 142/158/157 71/115/114 139/121/120
f 164/157/156 139/121/120 70/110/109
f 153/120/119 154/159/158 78/108/107
f 148/107/106 147/142/141 77/118/117
f 113/79/79 150/133/132 74/141/140
f 154/159/158 153/120/119 68/116/115
f 144/140/139 145/161/160 50/160/159
f 150/133/132 113/79/79 56/78/78
f 145/161/160 144/140/139 74/141/140
f 145/161/160 146/163/125 47/162/161
f 146/163/125 145/161/160 75/132/131
f 146/163/125 147/142/141 49/144/143
f 147/142/141 146/163/125 76/126/125
f 149/164/162 165/165/163 142/158/157
f 72/103/102 155/102/101 165/165/163
f 155/102/101 78/108/107 154/159/158
f 165/165/163 154/159/158 71/115/114
f 38/89/88 84/4/4 87/6/6
