# Blender 4.5.3 LTS
# www.blender.org
mtllib paredladrillo.mtl
g Cubo_Malla
v 6.026826 -0.177417 -0.428906
v 6.026826 7.334479 -0.428906
v 6.026826 -0.177417 0.428906
v 6.026826 7.334479 0.428906
v -6.026826 -0.177417 -0.428906
v -6.026826 7.334479 -0.428906
v -6.026826 -0.177417 0.428906
v -6.026826 7.334479 0.428906
vn 1.0000 -0.0000 -0.0000
vn -0.0000 -0.0000 1.0000
vn -1.0000 -0.0000 -0.0000
vn -0.0000 -0.0000 -1.0000
vn -0.0000 -1.0000 -0.0000
vn -0.0000 1.0000 -0.0000
vt 0.994680 0.672615
vt 0.749140 0.337805
vt 0.997080 0.341014
vt 0.746740 0.669405
vt 0.501200 0.334595
vt 0.498800 0.666195
vt 0.253260 0.331385
vt 0.250860 0.662985
vt 0.005320 0.328175
vt 0.255660 -0.000215
vt 0.503600 0.002995
vt 0.496400 0.997795
vt 0.002920 0.659776
vt 0.248460 0.994586
s 0
g off
g Cubo_Material.001
usemtl Material.001
f 2/1/1 3/2/1 1/3/1
f 4/4/2 7/5/2 3/2/2
f 8/6/3 5/7/3 7/5/3
f 6/8/4 1/9/4 5/7/4
f 7/5/5 1/10/5 3/11/5
f 4/12/6 6/8/6 8/6/6
f 2/1/1 4/4/1 3/2/1
f 4/4/2 8/6/2 7/5/2
f 8/6/3 6/8/3 5/7/3
f 6/8/4 2/13/4 1/9/4
f 7/5/5 5/7/5 1/10/5
f 4/12/6 2/14/6 6/8/6
