# Blender 4.5.3 LTS
# www.blender.org
mtllib PuertaCorrediza.mtl
g Cube_Malla
v 8.905548 -0.197995 -0.888067
v 8.905548 -0.197995 1.111933
v 8.905550 10.817370 -0.888067
v 8.905550 10.817370 1.111933
v 8.905550 10.817370 -0.888067
v 8.905550 10.817370 1.111933
v 8.905550 10.817370 -0.888067
v 8.905550 10.817370 1.111933
v 8.905550 10.817370 -0.888067
v 8.905550 10.817370 1.111933
v 8.905550 10.817370 -0.888067
v 8.905550 10.817370 1.111933
v 8.905550 10.817370 -0.888067
v 8.905550 10.817370 1.111933
v 8.905550 10.817370 -0.888067
v 8.905550 10.817370 1.111933
v 8.905550 10.817370 -0.888067
v 8.905550 10.817370 1.111933
v 8.905550 10.817370 -0.888067
v 4.544565 20.383595 -0.888067
v 8.905550 10.817370 1.111933
v 4.544565 20.383595 1.111933
v 8.905550 10.817370 -0.888067
v 5.583893 21.017122 -0.888067
v 8.905550 10.817370 1.111933
v 5.583893 21.017122 1.111933
v 8.905550 10.817370 -0.888067
v 6.680583 21.474510 -0.888067
v 8.905550 10.817370 1.111933
v 6.680583 21.474510 1.111933
v 8.905550 10.817370 -0.888067
v 7.815698 21.747856 -0.888067
v 8.905550 10.817370 1.111933
v 7.815698 21.747856 1.111933
v 8.905550 10.817370 -0.888067
v 8.969633 21.832443 -0.888067
v 8.905550 10.817370 1.111933
v 8.969633 21.832443 1.111933
v 8.905550 10.817370 -0.888067
v 8.952261 21.832577 -0.888067
v 8.905550 10.817370 1.111933
v 8.952261 21.832577 1.111933
v 8.905550 10.817370 -0.888067
v 8.934888 21.832672 -0.888067
v 8.905550 10.817370 1.111933
v 8.934888 21.832672 1.111933
v 8.905550 10.817370 -0.888067
v 8.917516 21.832722 -0.888067
v 8.905550 10.817370 1.111933
v 8.917516 21.832722 1.111933
v 8.905550 10.817370 -0.888067
v 8.900143 21.832729 -0.888067
v 8.905550 10.817370 1.111933
v 8.900143 21.832729 1.111933
v 8.905550 10.817370 -0.888067
v 8.882771 21.832695 -0.888067
v 8.905550 10.817370 1.111933
v 8.882771 21.832695 1.111933
v 8.905550 10.817370 -0.888067
v 8.865398 21.832619 -0.888067
v 8.905550 10.817370 1.111933
v 8.865398 21.832619 1.111933
v 8.905550 10.817370 -0.888067
v 8.848026 21.832497 -0.888067
v 8.905550 10.817370 1.111933
v 8.848026 21.832497 1.111933
v 8.905550 10.817370 -0.888067
v 8.830655 21.832333 -0.888067
v 8.905550 10.817370 1.111933
v 8.830655 21.832333 1.111933
v 8.905550 10.817370 -0.888067
v 8.813284 21.832123 -0.888067
v 8.905550 10.817370 1.111933
v 8.813284 21.832123 1.111933
v 8.905550 10.817370 -0.888067
v 8.795914 21.831875 -0.888067
v 8.905550 10.817370 1.111933
v 8.795914 21.831875 1.111933
v 8.905550 10.817370 -0.888067
v 8.778543 21.831581 -0.888067
v 8.905550 10.817370 1.111933
v 8.778543 21.831581 1.111933
v 8.905550 10.817370 -0.888067
v 8.761172 21.831245 -0.888067
v 8.905550 10.817370 1.111933
v 8.761172 21.831245 1.111933
v 4.485750 -0.197995 1.111933
v 4.525753 13.100979 -0.888067
v 4.519854 10.817370 -0.888067
v 4.529321 15.049102 1.111933
v 4.530782 15.047689 -0.888067
v 4.521452 12.295620 1.111933
v 4.523672 12.294871 -0.888067
v 4.537779 18.008804 1.111933
v 4.538428 18.007736 -0.888067
v 4.526327 14.001412 1.111933
v 4.528076 14.000140 -0.888067
v 4.519304 11.543920 1.111933
v 4.521730 11.543518 -0.888067
v 4.532990 16.333189 1.111933
v 4.491401 -0.197995 -0.888067
v 4.534099 16.331791 -0.888067
v 4.517228 10.817370 1.111933
v 4.523758 13.102019 1.111933
v 8.905548 -0.197995 1.111933
v 8.905550 10.817370 1.111933
v 4.485750 -0.197995 1.111933
v 4.517228 10.817370 1.111933
vn 1.0000 -0.0000 -0.0000
vn -0.0000 -0.0000 1.0000
vn -0.5205 0.8539 -0.0000
vn -0.3849 0.9229 -0.0000
vn -0.2341 0.9722 -0.0000
vn -0.0731 0.9973 -0.0000
vn -0.0078 -1.0000 -0.0000
vn -0.0000 -0.0000 -1.0000
vn -0.0054 -1.0000 -0.0000
vn -0.0005 -1.0000 -0.0000
vn -0.0029 -1.0000 -0.0000
vn 0.0020 -1.0000 -0.0000
vn 0.0045 -1.0000 -0.0000
vn 0.0070 -1.0000 -0.0000
vn 0.0095 -1.0000 -0.0000
vn 0.0119 -0.9999 -0.0000
vn 0.0144 -0.9999 -0.0000
vn 0.0169 -0.9999 -0.0000
vn 0.9999 0.0131 -0.0000
vn 0.0193 -0.9998 -0.0000
vn -0.0000 -1.0000 -0.0000
vn -1.0000 0.0029 -0.0000
vn -1.0000 0.0026 -0.0003
vn -1.0000 0.0029 -0.0003
vn -1.0000 0.0026 -0.0006
vn -1.0000 0.0026 -0.0028
vn -1.0000 0.0029 -0.0012
vt 0.875000 0.500000
vt 0.625000 0.750000
vt 0.625000 0.500000
vt 0.625000 0.250000
vt 0.499319 0.250000
vt 0.496024 0.250000
vt 0.875000 0.750000
vt 0.481135 0.250000
vt 0.490160 0.250000
vt 0.467908 0.250000
vt 0.419971 0.250000
vt 0.448648 0.250000
vt 0.375000 0.250000
vt 0.375000 1.000000
vt 0.625000 1.000000
vt 0.125000 0.750000
vt 0.125000 0.500000
vt 0.625000 0.000000
vt 0.375000 0.000000
vt 0.499542 0.500000
vt 0.499381 0.750000
vt 0.500351 0.250000
vt 0.467855 1.000000
vt 0.499249 1.000000
vt 0.448604 1.000000
vt 0.495959 1.000000
vt 0.419940 1.000000
vt 0.490099 1.000000
vt 0.481078 1.000000
vt 0.500276 1.000000
s 0
g off
g Cube_Material
usemtl Material
f 3/1/1 2/2/1 1/3/1
f 3/4/1 99/5/1 5/4/1
f 5/4/1 93/6/1 7/4/1
f 4/7/1 5/1/1 6/7/1
f 8/7/1 9/1/1 10/7/1
f 6/7/1 7/1/1 8/7/1
f 9/4/1 97/8/1 11/4/1
f 7/4/1 88/9/1 9/4/1
f 11/4/1 91/10/1 13/4/1
f 10/7/1 11/1/1 12/7/1
f 14/7/1 15/1/1 16/7/1
f 12/7/1 13/1/1 14/7/1
f 15/4/1 95/11/1 17/4/1
f 13/4/1 102/12/1 15/4/1
f 16/7/1 17/1/1 18/7/1
f 21/7/1 23/1/1 25/7/1
f 18/7/1 19/1/1 21/7/1
f 17/4/1 20/13/1 19/4/1
f 23/4/1 28/13/1 27/4/1
f 22/14/2 25/15/2 26/14/2
f 19/4/1 24/13/1 23/4/1
f 22/16/3 24/17/3 20/17/3
f 29/7/1 31/1/1 33/7/1
f 26/16/4 28/17/4 24/17/4
f 25/7/1 27/1/1 29/7/1
f 26/14/2 29/15/2 30/14/2
f 34/14/2 37/15/2 38/14/2
f 30/14/2 33/15/2 34/14/2
f 27/4/1 32/13/1 31/4/1
f 30/16/5 32/17/5 28/17/5
f 35/4/1 40/13/1 39/4/1
f 31/4/1 36/13/1 35/4/1
f 34/16/6 36/17/6 32/17/6
f 33/7/1 35/1/1 37/7/1
f 41/7/1 43/1/1 45/7/1
f 38/16/7 40/17/7 36/17/7
f 37/7/1 39/1/1 41/7/1
f 38/14/8 41/15/8 42/14/8
f 43/4/1 48/13/1 47/4/1
f 42/14/8 45/15/8 46/14/8
f 39/4/1 44/13/1 43/4/1
f 42/16/9 44/17/9 40/17/9
f 50/16/10 52/17/10 48/17/10
f 46/16/11 48/17/11 44/17/11
f 45/7/1 47/1/1 49/7/1
f 46/14/8 49/15/8 50/14/8
f 53/7/1 55/1/1 57/7/1
f 49/7/1 51/1/1 53/7/1
f 50/14/8 53/15/8 54/14/8
f 47/4/1 52/13/1 51/4/1
f 55/4/1 60/13/1 59/4/1
f 54/14/8 57/15/8 58/14/8
f 51/4/1 56/13/1 55/4/1
f 54/16/12 56/17/12 52/17/12
f 61/7/1 63/1/1 65/7/1
f 58/16/13 60/17/13 56/17/13
f 57/7/1 59/1/1 61/7/1
f 58/14/8 61/15/8 62/14/8
f 66/14/8 69/15/8 70/14/8
f 62/14/8 65/15/8 66/14/8
f 59/4/1 64/13/1 63/4/1
f 62/16/14 64/17/14 60/17/14
f 67/4/1 72/13/1 71/4/1
f 63/4/1 68/13/1 67/4/1
f 66/16/15 68/17/15 64/17/15
f 65/7/1 67/1/1 69/7/1
f 73/7/1 75/1/1 77/7/1
f 70/16/16 72/17/16 68/17/16
f 69/7/1 71/1/1 73/7/1
f 70/14/8 73/15/8 74/14/8
f 75/4/1 80/13/1 79/4/1
f 74/14/8 77/15/8 78/14/8
f 71/4/1 76/13/1 75/4/1
f 74/16/17 76/17/17 72/17/17
f 79/4/1 84/13/1 83/4/1
f 78/16/18 80/17/18 76/17/18
f 77/7/1 79/1/1 81/7/1
f 78/14/8 81/15/8 82/14/8
f 85/18/19 84/13/19 86/19/19
f 82/16/20 84/17/20 80/17/20
f 81/7/1 83/1/1 85/7/1
f 82/14/8 85/15/8 86/14/8
f 101/20/21 2/2/21 87/21/21
f 89/22/8 1/3/8 101/20/8
f 90/23/1 12/15/1 14/15/1
f 98/24/1 4/15/1 6/15/1
f 100/25/1 14/15/1 16/15/1
f 92/26/1 6/15/1 8/15/1
f 94/27/1 16/15/1 18/15/1
f 104/28/1 8/15/1 10/15/1
f 22/14/1 18/15/1 21/15/1
f 96/29/1 10/15/1 12/15/1
f 108/30/2 105/2/2 106/15/2
f 87/21/2 98/24/2 100/25/2
f 3/1/1 4/7/1 2/2/1
f 3/4/8 89/22/8 99/5/8
f 5/4/8 99/5/8 93/6/8
f 4/7/1 3/1/1 5/1/1
f 8/7/1 7/1/1 9/1/1
f 6/7/1 5/1/1 7/1/1
f 9/4/8 88/9/8 97/8/8
f 7/4/8 93/6/8 88/9/8
f 11/4/8 97/8/8 91/10/8
f 10/7/1 9/1/1 11/1/1
f 14/7/1 13/1/1 15/1/1
f 12/7/1 11/1/1 13/1/1
f 15/4/8 102/12/8 95/11/8
f 13/4/8 91/10/8 102/12/8
f 16/7/1 15/1/1 17/1/1
f 21/7/1 19/1/1 23/1/1
f 18/7/1 17/1/1 19/1/1
f 17/4/8 95/11/8 20/13/8
f 23/4/8 24/13/8 28/13/8
f 22/14/1 21/15/1 25/15/1
f 19/4/8 20/13/8 24/13/8
f 22/16/3 26/16/3 24/17/3
f 29/7/1 27/1/1 31/1/1
f 26/16/4 30/16/4 28/17/4
f 25/7/1 23/1/1 27/1/1
f 26/14/1 25/15/1 29/15/1
f 34/14/1 33/15/1 37/15/1
f 30/14/1 29/15/1 33/15/1
f 27/4/8 28/13/8 32/13/8
f 30/16/5 34/16/5 32/17/5
f 35/4/2 36/13/2 40/13/2
f 31/4/8 32/13/8 36/13/8
f 34/16/6 38/16/6 36/17/6
f 33/7/1 31/1/1 35/1/1
f 41/7/1 39/1/1 43/1/1
f 38/16/7 42/16/7 40/17/7
f 37/7/1 35/1/1 39/1/1
f 38/14/1 37/15/1 41/15/1
f 43/4/2 44/13/2 48/13/2
f 42/14/1 41/15/1 45/15/1
f 39/4/2 40/13/2 44/13/2
f 42/16/9 46/16/9 44/17/9
f 50/16/10 54/16/10 52/17/10
f 46/16/11 50/16/11 48/17/11
f 45/7/1 43/1/1 47/1/1
f 46/14/1 45/15/1 49/15/1
f 53/7/1 51/1/1 55/1/1
f 49/7/1 47/1/1 51/1/1
f 50/14/1 49/15/1 53/15/1
f 47/4/2 48/13/2 52/13/2
f 55/4/2 56/13/2 60/13/2
f 54/14/1 53/15/1 57/15/1
f 51/4/2 52/13/2 56/13/2
f 54/16/12 58/16/12 56/17/12
f 61/7/1 59/1/1 63/1/1
f 58/16/13 62/16/13 60/17/13
f 57/7/1 55/1/1 59/1/1
f 58/14/1 57/15/1 61/15/1
f 66/14/1 65/15/1 69/15/1
f 62/14/1 61/15/1 65/15/1
f 59/4/2 60/13/2 64/13/2
f 62/16/14 66/16/14 64/17/14
f 67/4/2 68/13/2 72/13/2
f 63/4/2 64/13/2 68/13/2
f 66/16/15 70/16/15 68/17/15
f 65/7/1 63/1/1 67/1/1
f 73/7/1 71/1/1 75/1/1
f 70/16/16 74/16/16 72/17/16
f 69/7/1 67/1/1 71/1/1
f 70/14/1 69/15/1 73/15/1
f 75/4/2 76/13/2 80/13/2
f 74/14/1 73/15/1 77/15/1
f 71/4/2 72/13/2 76/13/2
f 74/16/17 78/16/17 76/17/17
f 79/4/2 80/13/2 84/13/2
f 78/16/18 82/16/18 80/17/18
f 77/7/1 75/1/1 79/1/1
f 78/14/1 77/15/1 81/15/1
f 85/18/19 83/4/19 84/13/19
f 82/16/20 86/16/20 84/17/20
f 81/7/1 79/1/1 83/1/1
f 82/14/1 81/15/1 85/15/1
f 101/20/21 1/3/21 2/2/21
f 89/22/8 3/4/8 1/3/8
f 90/23/2 96/29/2 12/15/2
f 98/24/2 103/30/2 4/15/2
f 100/25/2 90/23/2 14/15/2
f 92/26/2 98/24/2 6/15/2
f 94/27/2 100/25/2 16/15/2
f 104/28/2 92/26/2 8/15/2
f 22/14/2 94/27/2 18/15/2
f 96/29/2 104/28/2 10/15/2
f 108/30/2 107/21/2 105/2/2
f 94/27/22 22/14/22 20/13/22
f 95/11/8 102/12/8 91/10/8
f 94/27/23 20/13/23 95/11/23
f 96/29/2 90/23/2 100/25/2
f 100/25/24 94/27/24 95/11/24
f 95/11/2 91/10/2 97/8/2
f 88/9/8 93/6/8 99/5/8
f 100/25/25 95/11/25 97/8/25
f 97/8/2 88/9/2 99/5/2
f 89/22/26 101/20/26 87/21/26
f 100/25/25 97/8/25 99/5/25
f 99/5/26 89/22/26 87/21/26
f 87/21/8 103/30/8 98/24/8
f 98/24/8 92/26/8 104/28/8
f 104/28/8 96/29/8 100/25/8
f 100/25/27 99/5/27 87/21/27
f 98/24/2 104/28/2 100/25/2
