# Blender 4.5.3 LTS
# www.blender.org
mtllib PuertaNormal.mtl
g Cube.001_Cube.002
v -9.042042 -0.232234 0.370372
v -0.245971 -0.232233 0.370373
v -9.042042 -0.232234 -1.629628
v -0.245971 -0.232233 -1.629627
v -9.042042 10.783133 0.370372
v -0.245972 10.783133 0.370373
v -9.042042 10.783133 -1.629628
v -0.245972 10.783133 -1.629627
v -9.042042 10.783133 0.370372
v -0.321922 12.227556 0.370373
v -9.042042 10.783133 -1.629628
v -0.321922 12.227556 -1.629627
v -9.042042 10.783133 0.370372
v -0.548462 13.647036 0.370373
v -9.042042 10.783133 -1.629628
v -0.548461 13.647036 -1.629627
v -9.042042 10.783133 0.370372
v -0.921678 15.017058 0.370373
v -9.042042 10.783133 -1.629628
v -0.921678 15.017058 -1.629627
v -9.042042 10.783133 0.370372
v -1.435126 16.313965 0.370373
v -9.042042 10.783133 -1.629628
v -1.435125 16.313965 -1.629627
v -9.042042 10.783133 0.370372
v -2.079938 17.515358 0.370373
v -9.042042 10.783133 -1.629628
v -2.079938 17.515358 -1.629627
v -9.042042 10.783133 0.370372
v -2.844980 18.600494 0.370372
v -9.042042 10.783133 -1.629628
v -2.844980 18.600494 -1.629627
v -9.042042 10.783133 0.370372
v -3.717040 19.550629 0.370372
v -9.042042 10.783133 -1.629628
v -3.717040 19.550629 -1.629628
v -9.042042 10.783133 0.370372
v -4.681058 20.349358 0.370372
v -9.042042 10.783133 -1.629628
v -4.681057 20.349358 -1.629628
v -9.042042 10.783133 0.370372
v -5.720387 20.982883 0.370372
v -9.042042 10.783133 -1.629628
v -5.720386 20.982883 -1.629628
v -9.042042 10.783133 0.370372
v -6.817077 21.440271 0.370372
v -9.042042 10.783133 -1.629628
v -6.817077 21.440271 -1.629628
v -9.042042 10.783133 0.370372
v -7.952191 21.713619 0.370372
v -9.042042 10.783133 -1.629628
v -7.952190 21.713619 -1.629628
v -9.042042 10.783133 0.370372
v -9.106126 21.798204 0.370372
v -9.042042 10.783133 -1.629628
v -9.106125 21.798204 -1.629628
v -9.042042 10.783133 0.370372
v -9.088754 21.798340 0.370372
v -9.042042 10.783133 -1.629628
v -9.088753 21.798340 -1.629628
v -9.042042 10.783133 0.370372
v -9.071381 21.798435 0.370372
v -9.042042 10.783133 -1.629628
v -9.071381 21.798435 -1.629628
v -9.042042 10.783133 0.370372
v -9.054008 21.798485 0.370372
v -9.042042 10.783133 -1.629628
v -9.054008 21.798485 -1.629628
v -9.042042 10.783133 0.370372
v -9.036636 21.798492 0.370372
v -9.042042 10.783133 -1.629628
v -9.036636 21.798492 -1.629628
v -9.042042 10.783133 0.370372
v -9.019264 21.798458 0.370372
v -9.042042 10.783133 -1.629628
v -9.019264 21.798458 -1.629628
v -9.042042 10.783133 0.370372
v -9.001892 21.798380 0.370372
v -9.042042 10.783133 -1.629628
v -9.001892 21.798380 -1.629628
v -9.042042 10.783133 0.370372
v -8.984520 21.798260 0.370372
v -9.042042 10.783133 -1.629628
v -8.984520 21.798260 -1.629628
v -9.042042 10.783133 0.370372
v -8.967148 21.798094 0.370372
v -9.042042 10.783133 -1.629628
v -8.967148 21.798094 -1.629628
v -9.042042 10.783133 0.370372
v -8.949778 21.797886 0.370372
v -9.042042 10.783133 -1.629628
v -8.949777 21.797886 -1.629628
v -9.042042 10.783133 0.370372
v -8.932406 21.797636 0.370372
v -9.042042 10.783133 -1.629628
v -8.932405 21.797636 -1.629628
v -9.042042 10.783133 0.370372
v -8.915035 21.797342 0.370372
v -9.042042 10.783133 -1.629628
v -8.915035 21.797342 -1.629628
v -9.042042 10.783133 0.370372
v -8.897665 21.797007 0.370372
v -9.042042 10.783133 -1.629628
v -8.897665 21.797007 -1.629628
vn -1.0000 -0.0000 -0.0000
vn -0.0000 -0.0000 -1.0000
vn -0.0000 -0.0000 1.0000
vn 1.0000 -0.0000 -0.0000
vn -0.0000 -1.0000 -0.0000
vn 0.9986 0.0525 -0.0000
vn 0.9875 0.1576 -0.0000
vn 0.9648 0.2628 -0.0000
vn 0.9298 0.3681 -0.0000
vn 0.8811 0.4729 -0.0000
vn 0.8173 0.5762 -0.0000
vn 0.6380 0.7700 -0.0000
vn 0.7367 0.6762 -0.0000
vn 0.5205 0.8539 -0.0000
vn 0.3849 0.9229 -0.0000
vn 0.2341 0.9722 -0.0000
vn 0.0731 0.9973 -0.0000
vn 0.0078 -1.0000 -0.0000
vn 0.0054 -1.0000 -0.0000
vn 0.0005 -1.0000 -0.0000
vn 0.0029 -1.0000 -0.0000
vn -0.0020 -1.0000 -0.0000
vn -0.0045 -1.0000 -0.0000
vn -0.0070 -1.0000 -0.0000
vn -0.0095 -1.0000 -0.0000
vn -0.0119 -0.9999 -0.0000
vn -0.0144 -0.9999 -0.0000
vn -0.0169 -0.9999 -0.0000
vn -0.9999 0.0131 -0.0000
vn -0.0193 -0.9998 -0.0000
vt 0.625000 0.500000
vt 0.875000 0.500000
vt 0.875000 0.750000
vt 0.625000 0.750000
vt 0.375000 0.750000
vt 0.625000 1.000000
vt 0.375000 1.000000
vt 0.625000 0.250000
vt 0.375000 0.250000
vt 0.125000 0.500000
vt 0.375000 0.500000
vt 0.125000 0.750000
vt 0.375000 0.000000
vt 0.625000 0.000000
s 0
g off
g Cube.001_Material.002
usemtl Material.002
f 1/1/1 5/2/1 7/3/1 3/4/1
f 4/5/2 3/4/2 7/6/2 8/7/2
f 5/8/3 6/9/3 10/9/3 9/8/3
f 6/10/4 2/11/4 4/5/4 8/12/4
f 2/11/5 1/1/5 3/4/5 4/5/5
f 6/9/3 5/8/3 1/1/3 2/11/3
f 9/8/3 10/9/3 14/9/3 13/8/3
f 8/7/2 7/6/2 11/6/2 12/7/2
f 6/10/6 8/12/6 12/12/6 10/10/6
f 7/3/1 5/2/1 9/2/1 11/3/1
f 15/3/1 13/2/1 17/2/1 19/3/1
f 10/10/7 12/12/7 16/12/7 14/10/7
f 11/3/1 9/2/1 13/2/1 15/3/1
f 12/7/2 11/6/2 15/6/2 16/7/2
f 17/8/3 18/9/3 22/9/3 21/8/3
f 16/7/2 15/6/2 19/6/2 20/7/2
f 13/8/3 14/9/3 18/9/3 17/8/3
f 14/10/8 16/12/8 20/12/8 18/10/8
f 21/8/3 22/9/3 26/9/3 25/8/3
f 18/10/9 20/12/9 24/12/9 22/10/9
f 19/3/1 17/2/1 21/2/1 23/3/1
f 20/7/2 19/6/2 23/6/2 24/7/2
f 27/3/1 25/2/1 29/2/1 31/3/1
f 22/10/10 24/12/10 28/12/10 26/10/10
f 23/3/1 21/2/1 25/2/1 27/3/1
f 24/7/2 23/6/2 27/6/2 28/7/2
f 29/8/3 30/9/3 34/9/3 33/8/3
f 28/7/2 27/6/2 31/6/2 32/7/2
f 25/8/3 26/9/3 30/9/3 29/8/3
f 26/10/11 28/12/11 32/12/11 30/10/11
f 34/10/12 36/12/12 40/12/12 38/10/12
f 30/10/13 32/12/13 36/12/13 34/10/13
f 31/3/1 29/2/1 33/2/1 35/3/1
f 32/7/2 31/6/2 35/6/2 36/7/2
f 39/3/1 37/2/1 41/2/1 43/3/1
f 35/3/1 33/2/1 37/2/1 39/3/1
f 36/7/2 35/6/2 39/6/2 40/7/2
f 33/8/3 34/9/3 38/9/3 37/8/3
f 41/8/3 42/9/3 46/9/3 45/8/3
f 40/7/2 39/6/2 43/6/2 44/7/2
f 37/8/3 38/9/3 42/9/3 41/8/3
f 38/10/14 40/12/14 44/12/14 42/10/14
f 47/3/1 45/2/1 49/2/1 51/3/1
f 42/10/15 44/12/15 48/12/15 46/10/15
f 43/3/1 41/2/1 45/2/1 47/3/1
f 44/7/2 43/6/2 47/6/2 48/7/2
f 52/7/2 51/6/2 55/6/2 56/7/2
f 48/7/2 47/6/2 51/6/2 52/7/2
f 45/8/3 46/9/3 50/9/3 49/8/3
f 46/10/16 48/12/16 52/12/16 50/10/16
f 53/8/2 54/9/2 58/9/2 57/8/2
f 49/8/3 50/9/3 54/9/3 53/8/3
f 50/10/17 52/12/17 56/12/17 54/10/17
f 51/3/1 49/2/1 53/2/1 55/3/1
f 59/3/1 57/2/1 61/2/1 63/3/1
f 54/10/18 56/12/18 60/12/18 58/10/18
f 55/3/1 53/2/1 57/2/1 59/3/1
f 56/7/3 55/6/3 59/6/3 60/7/3
f 61/8/2 62/9/2 66/9/2 65/8/2
f 60/7/3 59/6/3 63/6/3 64/7/3
f 57/8/2 58/9/2 62/9/2 61/8/2
f 58/10/19 60/12/19 64/12/19 62/10/19
f 66/10/20 68/12/20 72/12/20 70/10/20
f 62/10/21 64/12/21 68/12/21 66/10/21
f 63/3/1 61/2/1 65/2/1 67/3/1
f 64/7/3 63/6/3 67/6/3 68/7/3
f 71/3/1 69/2/1 73/2/1 75/3/1
f 67/3/1 65/2/1 69/2/1 71/3/1
f 68/7/3 67/6/3 71/6/3 72/7/3
f 65/8/2 66/9/2 70/9/2 69/8/2
f 73/8/2 74/9/2 78/9/2 77/8/2
f 72/7/3 71/6/3 75/6/3 76/7/3
f 69/8/2 70/9/2 74/9/2 73/8/2
f 70/10/22 72/12/22 76/12/22 74/10/22
f 79/3/1 77/2/1 81/2/1 83/3/1
f 74/10/23 76/12/23 80/12/23 78/10/23
f 75/3/1 73/2/1 77/2/1 79/3/1
f 76/7/3 75/6/3 79/6/3 80/7/3
f 84/7/3 83/6/3 87/6/3 88/7/3
f 80/7/3 79/6/3 83/6/3 84/7/3
f 77/8/2 78/9/2 82/9/2 81/8/2
f 78/10/24 80/12/24 84/12/24 82/10/24
f 85/8/2 86/9/2 90/9/2 89/8/2
f 81/8/2 82/9/2 86/9/2 85/8/2
f 82/10/25 84/12/25 88/12/25 86/10/25
f 83/3/1 81/2/1 85/2/1 87/3/1
f 91/3/1 89/2/1 93/2/1 95/3/1
f 86/10/26 88/12/26 92/12/26 90/10/26
f 87/3/1 85/2/1 89/2/1 91/3/1
f 88/7/3 87/6/3 91/6/3 92/7/3
f 93/8/2 94/9/2 98/9/2 97/8/2
f 92/7/3 91/6/3 95/6/3 96/7/3
f 89/8/2 90/9/2 94/9/2 93/8/2
f 90/10/27 92/12/27 96/12/27 94/10/27
f 97/8/2 98/9/2 102/9/2 101/8/2
f 94/10/28 96/12/28 100/12/28 98/10/28
f 95/3/1 93/2/1 97/2/1 99/3/1
f 96/7/3 95/6/3 99/6/3 100/7/3
f 104/13/29 103/14/29 101/8/29 102/9/29
f 98/10/30 100/12/30 104/12/30 102/10/30
f 99/3/1 97/2/1 101/2/1 103/3/1
f 100/7/3 99/6/3 103/6/3 104/7/3
