# Blender 4.5.3 LTS
# www.blender.org
mtllib PuertaCorredizaBisagra .mtl
g Cube.002_Malla
v 0.184834 -0.197995 -0.957472
v 0.184834 -0.197995 1.042528
v 0.184835 10.817370 -0.957472
v 0.184835 10.817370 1.042528
v 0.260786 12.261794 -0.957472
v 0.260786 12.261794 1.042528
v 0.487325 13.681273 -0.957472
v 0.487325 13.681273 1.042528
v 0.860541 15.051296 -0.957472
v 0.860541 15.051296 1.042528
v 1.373988 16.348202 -0.957472
v 1.373988 16.348202 1.042528
v 2.018800 17.549597 -0.957472
v 2.018800 17.549597 1.042528
v 2.783843 18.634731 -0.957472
v 2.783843 18.634731 1.042528
v 3.655902 19.584866 -0.957472
v 3.655902 19.584866 1.042528
v 4.619921 20.383595 -0.957472
v 4.619921 20.383595 1.042528
v 4.561106 -0.197995 1.042528
v 4.601109 13.100979 -0.957472
v 4.595210 10.817370 -0.957472
v 4.604677 15.049102 1.042528
v 4.606138 15.047689 -0.957472
v 4.596808 12.295620 1.042528
v 4.599028 12.294871 -0.957472
v 4.613135 18.008804 1.042528
v 4.613784 18.007736 -0.957472
v 4.601683 14.001412 1.042528
v 4.603432 14.000140 -0.957472
v 4.594660 11.543920 1.042528
v 4.597086 11.543518 -0.957472
v 4.608346 16.333189 1.042528
v 4.566757 -0.197995 -0.957472
v 4.609455 16.331791 -0.957472
v 4.592584 10.817370 1.042528
v 4.599114 13.102019 1.042528
vn -0.0000 -0.0000 1.0000
vn -1.0000 -0.0000 -0.0000
vn -0.0000 -1.0000 -0.0000
vn -0.0000 -0.0000 -1.0000
vn -0.9986 0.0525 -0.0000
vn -0.9875 0.1576 -0.0000
vn -0.9648 0.2628 -0.0000
vn -0.9298 0.3681 -0.0000
vn -0.8811 0.4729 -0.0000
vn -0.8173 0.5762 -0.0000
vn -0.6380 0.7700 -0.0000
vn -0.7367 0.6762 -0.0000
vn 1.0000 -0.0026 0.0012
vn 1.0000 -0.0029 -0.0000
vn 1.0000 -0.0026 0.0006
vn 1.0000 -0.0026 0.0028
vn 1.0000 -0.0029 0.0012
vn 1.0000 -0.0029 0.0003
vt 0.499381 0.750000
vt 0.375000 1.000000
vt 0.375000 0.750000
vt 0.375000 0.500000
vt 0.125000 0.750000
vt 0.125000 0.500000
vt 0.375000 0.250000
vt 0.499542 0.500000
vt 0.499249 1.000000
vt 0.495959 1.000000
vt 0.490099 1.000000
vt 0.481078 1.000000
vt 0.467855 1.000000
vt 0.448604 1.000000
vt 0.419940 1.000000
vt 0.496024 0.250000
vt 0.419971 0.250000
vt 0.448648 0.250000
vt 0.481135 0.250000
vt 0.490160 0.250000
vt 0.467908 0.250000
vt 0.499319 0.250000
vt 0.500276 1.000000
vt 0.500351 0.250000
s 0
g off
g Cube.002_Material
usemtl Material
f 21/1/1 4/2/1 2/3/1
f 1/4/2 4/5/2 3/6/2
f 1/4/3 21/1/3 2/3/3
f 3/7/4 35/8/4 1/4/4
f 4/2/1 32/9/1 6/2/1
f 4/5/5 5/6/5 3/6/5
f 6/5/6 7/6/6 5/6/6
f 6/2/1 26/10/1 8/2/1
f 8/2/1 38/11/1 10/2/1
f 8/5/7 9/6/7 7/6/7
f 10/5/8 11/6/8 9/6/8
f 10/2/1 30/12/1 12/2/1
f 12/5/9 13/6/9 11/6/9
f 12/2/1 24/13/1 14/2/1
f 14/2/1 34/14/1 16/2/1
f 14/5/10 15/6/10 13/6/10
f 18/5/11 19/6/11 17/6/11
f 16/5/12 17/6/12 15/6/12
f 16/2/1 28/15/1 18/2/1
f 18/2/1 28/15/1 20/2/1
f 27/16/4 5/7/4 7/7/4
f 29/17/4 15/7/4 17/7/4
f 36/18/4 13/7/4 15/7/4
f 31/19/4 9/7/4 11/7/4
f 22/20/4 7/7/4 9/7/4
f 25/21/4 11/7/4 13/7/4
f 19/7/4 29/17/4 17/7/4
f 33/22/4 3/7/4 5/7/4
f 32/9/13 27/16/13 25/21/13
f 21/1/1 37/23/1 4/2/1
f 1/4/2 2/3/2 4/5/2
f 1/4/3 35/8/3 21/1/3
f 3/7/4 23/24/4 35/8/4
f 4/2/1 37/23/1 32/9/1
f 4/5/5 6/5/5 5/6/5
f 6/5/6 8/5/6 7/6/6
f 6/2/1 32/9/1 26/10/1
f 8/2/1 26/10/1 38/11/1
f 8/5/7 10/5/7 9/6/7
f 10/5/8 12/5/8 11/6/8
f 10/2/1 38/11/1 30/12/1
f 12/5/9 14/5/9 13/6/9
f 12/2/1 30/12/1 24/13/1
f 14/2/1 24/13/1 34/14/1
f 14/5/10 16/5/10 15/6/10
f 18/5/11 20/5/11 19/6/11
f 16/5/12 18/5/12 17/6/12
f 16/2/1 34/14/1 28/15/1
f 27/16/4 33/22/4 5/7/4
f 29/17/4 36/18/4 15/7/4
f 36/18/4 25/21/4 13/7/4
f 31/19/4 22/20/4 9/7/4
f 22/20/4 27/16/4 7/7/4
f 25/21/4 31/19/4 11/7/4
f 33/22/4 23/24/4 3/7/4
f 19/7/14 20/2/14 28/15/14
f 34/14/4 24/13/4 30/12/4
f 19/7/14 28/15/14 34/14/14
f 25/21/1 36/18/1 29/17/1
f 29/17/15 19/7/15 34/14/15
f 34/14/1 30/12/1 38/11/1
f 38/11/1 26/10/1 32/9/1
f 32/9/1 37/23/1 21/1/1
f 21/1/16 35/8/16 23/24/16
f 21/1/16 23/24/16 33/22/16
f 34/14/4 38/11/4 32/9/4
f 32/9/17 21/1/17 33/22/17
f 27/16/4 22/20/4 31/19/4
f 32/9/13 33/22/13 27/16/13
f 29/17/18 34/14/18 32/9/18
f 27/16/1 31/19/1 25/21/1
f 25/21/13 29/17/13 32/9/13
